<mxfile host="Electron" modified="2024-03-05T22:10:57.476Z" agent="Mozilla/5.0 (Macintosh; Intel Mac OS X 10_15_7) AppleWebKit/537.36 (KHTML, like Gecko) draw.io/23.1.5 Chrome/120.0.6099.109 Electron/28.1.0 Safari/537.36" etag="RMCNg5A4W341j1ddB76l" version="23.1.5" type="device">
  <diagram name="Page-1" id="FPmtGauOEdD1Re9bnc2V">
    <mxGraphModel dx="2247" dy="1533" grid="1" gridSize="10" guides="1" tooltips="1" connect="1" arrows="1" fold="1" page="1" pageScale="1" pageWidth="1100" pageHeight="850" math="0" shadow="0">
      <root>
        <mxCell id="0" />
        <mxCell id="1" parent="0" />
        <mxCell id="lQ856VbMLnPR7FZK5Fr0-1" value="User" style="whiteSpace=wrap;html=1;align=center;" parent="1" vertex="1">
          <mxGeometry x="-10.25" y="300" width="100" height="40" as="geometry" />
        </mxCell>
        <mxCell id="H2kWALHUpQaHUIlN6z7A-2" style="edgeStyle=orthogonalEdgeStyle;rounded=0;orthogonalLoop=1;jettySize=auto;html=1;exitX=1;exitY=0.5;exitDx=0;exitDy=0;entryX=0;entryY=0.5;entryDx=0;entryDy=0;endArrow=ERone;endFill=0;" parent="1" source="H2kWALHUpQaHUIlN6z7A-1" target="lQ856VbMLnPR7FZK5Fr0-2" edge="1">
          <mxGeometry relative="1" as="geometry" />
        </mxCell>
        <mxCell id="H2kWALHUpQaHUIlN6z7A-3" style="edgeStyle=orthogonalEdgeStyle;rounded=0;orthogonalLoop=1;jettySize=auto;html=1;exitX=0;exitY=0.5;exitDx=0;exitDy=0;entryX=1;entryY=0.5;entryDx=0;entryDy=0;endArrow=ERmandOne;endFill=0;" parent="1" source="H2kWALHUpQaHUIlN6z7A-1" target="lQ856VbMLnPR7FZK5Fr0-1" edge="1">
          <mxGeometry relative="1" as="geometry" />
        </mxCell>
        <mxCell id="32Z3iKF3l3qFzu09CNa0-4" style="edgeStyle=orthogonalEdgeStyle;rounded=0;orthogonalLoop=1;jettySize=auto;html=1;exitX=0.5;exitY=1;exitDx=0;exitDy=0;entryX=0.5;entryY=0;entryDx=0;entryDy=0;endArrow=ERzeroToOne;endFill=0;" parent="1" source="32Z3iKF3l3qFzu09CNa0-1" target="32Z3iKF3l3qFzu09CNa0-2" edge="1">
          <mxGeometry relative="1" as="geometry" />
        </mxCell>
        <mxCell id="32Z3iKF3l3qFzu09CNa0-5" style="edgeStyle=orthogonalEdgeStyle;rounded=0;orthogonalLoop=1;jettySize=auto;html=1;entryX=0.5;entryY=0;entryDx=0;entryDy=0;endArrow=ERzeroToOne;endFill=0;" parent="1" source="32Z3iKF3l3qFzu09CNa0-1" target="32Z3iKF3l3qFzu09CNa0-3" edge="1">
          <mxGeometry relative="1" as="geometry" />
        </mxCell>
        <mxCell id="32Z3iKF3l3qFzu09CNa0-6" style="edgeStyle=orthogonalEdgeStyle;rounded=0;orthogonalLoop=1;jettySize=auto;html=1;exitX=0.5;exitY=0;exitDx=0;exitDy=0;endArrow=ERmandOne;endFill=0;" parent="1" source="32Z3iKF3l3qFzu09CNa0-1" target="lQ856VbMLnPR7FZK5Fr0-2" edge="1">
          <mxGeometry relative="1" as="geometry" />
        </mxCell>
        <mxCell id="32Z3iKF3l3qFzu09CNa0-2" value="General User" style="shape=ext;margin=3;double=1;whiteSpace=wrap;html=1;align=center;" parent="1" vertex="1">
          <mxGeometry x="320" y="520" width="100" height="40" as="geometry" />
        </mxCell>
        <mxCell id="32Z3iKF3l3qFzu09CNa0-3" value="Admin" style="shape=ext;margin=3;double=1;whiteSpace=wrap;html=1;align=center;" parent="1" vertex="1">
          <mxGeometry x="480" y="520" width="100" height="40" as="geometry" />
        </mxCell>
        <mxCell id="32Z3iKF3l3qFzu09CNa0-7" value="" style="rounded=0;whiteSpace=wrap;html=1;fillColor=none;dashed=1;dashPattern=12 12;" parent="1" vertex="1">
          <mxGeometry x="305" y="470" width="290" height="110" as="geometry" />
        </mxCell>
        <mxCell id="32Z3iKF3l3qFzu09CNa0-12" style="edgeStyle=orthogonalEdgeStyle;rounded=0;orthogonalLoop=1;jettySize=auto;html=1;exitX=0;exitY=0.5;exitDx=0;exitDy=0;endArrow=ERzeroToMany;endFill=0;" parent="1" source="KZsEy8aUsTh1ePcl9788-27" target="Zpv9UvLriDffYdWMjb3y-1" edge="1">
          <mxGeometry relative="1" as="geometry">
            <mxPoint x="130" y="535" as="sourcePoint" />
            <mxPoint x="70" y="535" as="targetPoint" />
          </mxGeometry>
        </mxCell>
        <mxCell id="32Z3iKF3l3qFzu09CNa0-17" value="Long-term Goals" style="shape=ext;margin=3;double=1;whiteSpace=wrap;html=1;align=center;" parent="1" vertex="1">
          <mxGeometry y="440" width="100" height="40" as="geometry" />
        </mxCell>
        <mxCell id="32Z3iKF3l3qFzu09CNa0-18" style="edgeStyle=orthogonalEdgeStyle;rounded=0;orthogonalLoop=1;jettySize=auto;html=1;exitX=1;exitY=0.5;exitDx=0;exitDy=0;entryX=0;entryY=0.25;entryDx=0;entryDy=0;endArrow=ERmandOne;endFill=0;" parent="1" source="32Z3iKF3l3qFzu09CNa0-20" target="32Z3iKF3l3qFzu09CNa0-7" edge="1">
          <mxGeometry relative="1" as="geometry">
            <mxPoint x="305" y="450" as="targetPoint" />
          </mxGeometry>
        </mxCell>
        <mxCell id="32Z3iKF3l3qFzu09CNa0-19" style="edgeStyle=orthogonalEdgeStyle;rounded=0;orthogonalLoop=1;jettySize=auto;html=1;exitX=0;exitY=0.5;exitDx=0;exitDy=0;endArrow=ERoneToMany;endFill=0;" parent="1" source="32Z3iKF3l3qFzu09CNa0-20" target="32Z3iKF3l3qFzu09CNa0-17" edge="1">
          <mxGeometry relative="1" as="geometry" />
        </mxCell>
        <mxCell id="32Z3iKF3l3qFzu09CNa0-20" value="Have" style="shape=rhombus;perimeter=rhombusPerimeter;whiteSpace=wrap;html=1;align=center;" parent="1" vertex="1">
          <mxGeometry x="140" y="430" width="120" height="60" as="geometry" />
        </mxCell>
        <mxCell id="32Z3iKF3l3qFzu09CNa0-27" style="edgeStyle=orthogonalEdgeStyle;rounded=0;orthogonalLoop=1;jettySize=auto;html=1;exitX=1;exitY=0.5;exitDx=0;exitDy=0;entryX=0;entryY=0.5;entryDx=0;entryDy=0;endArrow=ERmandOne;endFill=0;" parent="1" source="32Z3iKF3l3qFzu09CNa0-25" target="32Z3iKF3l3qFzu09CNa0-26" edge="1">
          <mxGeometry relative="1" as="geometry" />
        </mxCell>
        <mxCell id="32Z3iKF3l3qFzu09CNa0-28" style="edgeStyle=orthogonalEdgeStyle;rounded=0;orthogonalLoop=1;jettySize=auto;html=1;exitX=0;exitY=0.5;exitDx=0;exitDy=0;endArrow=ERmandOne;endFill=0;" parent="1" source="32Z3iKF3l3qFzu09CNa0-25" target="32Z3iKF3l3qFzu09CNa0-7" edge="1">
          <mxGeometry relative="1" as="geometry" />
        </mxCell>
        <mxCell id="32Z3iKF3l3qFzu09CNa0-26" value="Nutritional Goals" style="shape=ext;margin=3;double=1;whiteSpace=wrap;html=1;align=center;" parent="1" vertex="1">
          <mxGeometry x="820" y="515" width="100" height="40" as="geometry" />
        </mxCell>
        <mxCell id="32Z3iKF3l3qFzu09CNa0-29" style="edgeStyle=orthogonalEdgeStyle;rounded=0;orthogonalLoop=1;jettySize=auto;html=1;exitX=1;exitY=0.5;exitDx=0;exitDy=0;entryX=0;entryY=0.5;entryDx=0;entryDy=0;endArrow=ERoneToMany;endFill=0;" parent="1" source="32Z3iKF3l3qFzu09CNa0-31" target="32Z3iKF3l3qFzu09CNa0-32" edge="1">
          <mxGeometry relative="1" as="geometry" />
        </mxCell>
        <mxCell id="32Z3iKF3l3qFzu09CNa0-30" style="edgeStyle=orthogonalEdgeStyle;rounded=0;orthogonalLoop=1;jettySize=auto;html=1;exitX=0;exitY=0.5;exitDx=0;exitDy=0;endArrow=ERmandOne;endFill=0;entryX=1;entryY=0;entryDx=0;entryDy=0;" parent="1" source="32Z3iKF3l3qFzu09CNa0-31" target="32Z3iKF3l3qFzu09CNa0-7" edge="1">
          <mxGeometry relative="1" as="geometry">
            <mxPoint x="590" y="450" as="targetPoint" />
          </mxGeometry>
        </mxCell>
        <mxCell id="32Z3iKF3l3qFzu09CNa0-31" value="Input" style="shape=rhombus;perimeter=rhombusPerimeter;whiteSpace=wrap;html=1;align=center;" parent="1" vertex="1">
          <mxGeometry x="770" y="367" width="120" height="60" as="geometry" />
        </mxCell>
        <mxCell id="32Z3iKF3l3qFzu09CNa0-32" value="Weight Log" style="shape=ext;margin=3;double=1;whiteSpace=wrap;html=1;align=center;" parent="1" vertex="1">
          <mxGeometry x="920" y="377" width="100" height="40" as="geometry" />
        </mxCell>
        <mxCell id="32Z3iKF3l3qFzu09CNa0-33" style="edgeStyle=orthogonalEdgeStyle;rounded=0;orthogonalLoop=1;jettySize=auto;html=1;exitX=1;exitY=0.5;exitDx=0;exitDy=0;entryX=0;entryY=0.5;entryDx=0;entryDy=0;endArrow=ERzeroToMany;endFill=0;" parent="1" source="32Z3iKF3l3qFzu09CNa0-35" target="32Z3iKF3l3qFzu09CNa0-36" edge="1">
          <mxGeometry relative="1" as="geometry" />
        </mxCell>
        <mxCell id="32Z3iKF3l3qFzu09CNa0-34" style="edgeStyle=orthogonalEdgeStyle;rounded=0;orthogonalLoop=1;jettySize=auto;html=1;exitX=0;exitY=0.5;exitDx=0;exitDy=0;endArrow=ERmandOne;endFill=0;entryX=1.001;entryY=0.853;entryDx=0;entryDy=0;entryPerimeter=0;" parent="1" source="32Z3iKF3l3qFzu09CNa0-35" target="32Z3iKF3l3qFzu09CNa0-7" edge="1">
          <mxGeometry relative="1" as="geometry">
            <mxPoint x="620" y="590" as="targetPoint" />
          </mxGeometry>
        </mxCell>
        <mxCell id="32Z3iKF3l3qFzu09CNa0-35" value="Input" style="shape=rhombus;perimeter=rhombusPerimeter;whiteSpace=wrap;html=1;align=center;" parent="1" vertex="1">
          <mxGeometry x="650" y="695.5" width="120" height="60" as="geometry" />
        </mxCell>
        <mxCell id="32Z3iKF3l3qFzu09CNa0-36" value="Fasting Logs" style="shape=ext;margin=3;double=1;whiteSpace=wrap;html=1;align=center;" parent="1" vertex="1">
          <mxGeometry x="820" y="705.5" width="100" height="40" as="geometry" />
        </mxCell>
        <mxCell id="32Z3iKF3l3qFzu09CNa0-37" style="edgeStyle=orthogonalEdgeStyle;rounded=0;orthogonalLoop=1;jettySize=auto;html=1;exitX=1;exitY=0.5;exitDx=0;exitDy=0;entryX=0;entryY=0.5;entryDx=0;entryDy=0;endArrow=ERzeroToMany;endFill=0;" parent="1" source="32Z3iKF3l3qFzu09CNa0-39" target="32Z3iKF3l3qFzu09CNa0-40" edge="1">
          <mxGeometry relative="1" as="geometry" />
        </mxCell>
        <mxCell id="32Z3iKF3l3qFzu09CNa0-38" style="edgeStyle=orthogonalEdgeStyle;rounded=0;orthogonalLoop=1;jettySize=auto;html=1;exitX=0;exitY=0.5;exitDx=0;exitDy=0;endArrow=ERmandOne;endFill=0;entryX=1;entryY=1;entryDx=0;entryDy=0;" parent="1" source="32Z3iKF3l3qFzu09CNa0-39" target="32Z3iKF3l3qFzu09CNa0-7" edge="1">
          <mxGeometry relative="1" as="geometry">
            <mxPoint x="595" y="590" as="targetPoint" />
          </mxGeometry>
        </mxCell>
        <mxCell id="32Z3iKF3l3qFzu09CNa0-39" value="Input" style="shape=rhombus;perimeter=rhombusPerimeter;whiteSpace=wrap;html=1;align=center;" parent="1" vertex="1">
          <mxGeometry x="650" y="781.5" width="120" height="60" as="geometry" />
        </mxCell>
        <mxCell id="32Z3iKF3l3qFzu09CNa0-40" value="Diary Entries" style="shape=ext;margin=3;double=1;whiteSpace=wrap;html=1;align=center;" parent="1" vertex="1">
          <mxGeometry x="820" y="791.5" width="100" height="40" as="geometry" />
        </mxCell>
        <mxCell id="32Z3iKF3l3qFzu09CNa0-49" value="Water intakes" style="shape=ext;margin=3;double=1;whiteSpace=wrap;html=1;align=center;" parent="1" vertex="1">
          <mxGeometry y="372" width="100" height="40" as="geometry" />
        </mxCell>
        <mxCell id="32Z3iKF3l3qFzu09CNa0-50" style="edgeStyle=orthogonalEdgeStyle;rounded=0;orthogonalLoop=1;jettySize=auto;html=1;exitX=1;exitY=0.5;exitDx=0;exitDy=0;entryX=0;entryY=0;entryDx=0;entryDy=0;endArrow=ERmandOne;endFill=0;" parent="1" source="32Z3iKF3l3qFzu09CNa0-52" target="32Z3iKF3l3qFzu09CNa0-7" edge="1">
          <mxGeometry relative="1" as="geometry">
            <mxPoint x="305" y="440" as="targetPoint" />
          </mxGeometry>
        </mxCell>
        <mxCell id="32Z3iKF3l3qFzu09CNa0-51" style="edgeStyle=orthogonalEdgeStyle;rounded=0;orthogonalLoop=1;jettySize=auto;html=1;exitX=0;exitY=0.5;exitDx=0;exitDy=0;endArrow=ERzeroToMany;endFill=0;" parent="1" source="32Z3iKF3l3qFzu09CNa0-52" target="32Z3iKF3l3qFzu09CNa0-49" edge="1">
          <mxGeometry relative="1" as="geometry" />
        </mxCell>
        <mxCell id="32Z3iKF3l3qFzu09CNa0-52" value="Input" style="shape=rhombus;perimeter=rhombusPerimeter;whiteSpace=wrap;html=1;align=center;" parent="1" vertex="1">
          <mxGeometry x="140" y="362" width="120" height="60" as="geometry" />
        </mxCell>
        <mxCell id="32Z3iKF3l3qFzu09CNa0-57" value="Food" style="whiteSpace=wrap;html=1;align=center;" parent="1" vertex="1">
          <mxGeometry x="-96.25" y="877.5" width="100" height="40" as="geometry" />
        </mxCell>
        <mxCell id="32Z3iKF3l3qFzu09CNa0-61" value="Supplements" style="whiteSpace=wrap;html=1;align=center;" parent="1" vertex="1">
          <mxGeometry x="-96.25" y="967.5" width="100" height="40" as="geometry" />
        </mxCell>
        <mxCell id="32Z3iKF3l3qFzu09CNa0-62" value="Medication" style="whiteSpace=wrap;html=1;align=center;" parent="1" vertex="1">
          <mxGeometry x="-96.25" y="1037.5" width="100" height="40" as="geometry" />
        </mxCell>
        <mxCell id="32Z3iKF3l3qFzu09CNa0-75" style="edgeStyle=orthogonalEdgeStyle;rounded=0;orthogonalLoop=1;jettySize=auto;html=1;exitX=0;exitY=0.5;exitDx=0;exitDy=0;entryX=0.25;entryY=0;entryDx=0;entryDy=0;endArrow=ERzeroToMany;endFill=0;" parent="1" source="32Z3iKF3l3qFzu09CNa0-71" target="32Z3iKF3l3qFzu09CNa0-72" edge="1">
          <mxGeometry relative="1" as="geometry" />
        </mxCell>
        <mxCell id="Ubex0Ra7HCPxJ83cHDF8-99" style="edgeStyle=orthogonalEdgeStyle;rounded=0;orthogonalLoop=1;jettySize=auto;html=1;exitX=1;exitY=0.5;exitDx=0;exitDy=0;entryX=0.179;entryY=1.009;entryDx=0;entryDy=0;endArrow=ERzeroToOne;endFill=0;entryPerimeter=0;" parent="1" source="32Z3iKF3l3qFzu09CNa0-71" target="32Z3iKF3l3qFzu09CNa0-7" edge="1">
          <mxGeometry relative="1" as="geometry">
            <Array as="points">
              <mxPoint x="357" y="743" />
            </Array>
          </mxGeometry>
        </mxCell>
        <mxCell id="32Z3iKF3l3qFzu09CNa0-72" value="" style="rounded=0;whiteSpace=wrap;html=1;fillColor=none;dashed=1;dashPattern=12 12;rotation=90;" parent="1" vertex="1">
          <mxGeometry x="-227.5" y="837.5" width="362.5" height="154.5" as="geometry" />
        </mxCell>
        <mxCell id="Ubex0Ra7HCPxJ83cHDF8-15" style="edgeStyle=orthogonalEdgeStyle;rounded=0;orthogonalLoop=1;jettySize=auto;html=1;exitX=0;exitY=0.5;exitDx=0;exitDy=0;entryX=1;entryY=0.5;entryDx=0;entryDy=0;endArrow=ERzeroToMany;endFill=0;" parent="1" source="Ubex0Ra7HCPxJ83cHDF8-1" target="Ubex0Ra7HCPxJ83cHDF8-13" edge="1">
          <mxGeometry relative="1" as="geometry">
            <Array as="points">
              <mxPoint x="110" y="776.5" />
            </Array>
          </mxGeometry>
        </mxCell>
        <mxCell id="Ubex0Ra7HCPxJ83cHDF8-1" value="Saved Recipes" style="shape=associativeEntity;whiteSpace=wrap;html=1;align=center;" parent="1" vertex="1">
          <mxGeometry x="110" y="751" width="140" height="60" as="geometry" />
        </mxCell>
        <mxCell id="Ubex0Ra7HCPxJ83cHDF8-4" style="edgeStyle=orthogonalEdgeStyle;rounded=0;orthogonalLoop=1;jettySize=auto;html=1;exitX=1;exitY=0.5;exitDx=0;exitDy=0;entryX=0.135;entryY=1.027;entryDx=0;entryDy=0;entryPerimeter=0;endArrow=ERzeroToMany;endFill=0;" parent="1" source="Ubex0Ra7HCPxJ83cHDF8-1" target="32Z3iKF3l3qFzu09CNa0-7" edge="1">
          <mxGeometry relative="1" as="geometry" />
        </mxCell>
        <mxCell id="Ubex0Ra7HCPxJ83cHDF8-7" style="edgeStyle=orthogonalEdgeStyle;rounded=0;orthogonalLoop=1;jettySize=auto;html=1;exitX=1;exitY=0.5;exitDx=0;exitDy=0;entryX=0;entryY=0.5;entryDx=0;entryDy=0;endArrow=ERzeroToMany;endFill=0;" parent="1" source="Ubex0Ra7HCPxJ83cHDF8-5" target="Ubex0Ra7HCPxJ83cHDF8-12" edge="1">
          <mxGeometry relative="1" as="geometry">
            <mxPoint x="820" y="902" as="targetPoint" />
          </mxGeometry>
        </mxCell>
        <mxCell id="Ubex0Ra7HCPxJ83cHDF8-5" value="Create" style="shape=rhombus;perimeter=rhombusPerimeter;whiteSpace=wrap;html=1;align=center;" parent="1" vertex="1">
          <mxGeometry x="650" y="872" width="120" height="60" as="geometry" />
        </mxCell>
        <mxCell id="Ubex0Ra7HCPxJ83cHDF8-8" style="edgeStyle=orthogonalEdgeStyle;rounded=0;orthogonalLoop=1;jettySize=auto;html=1;exitX=0;exitY=0.5;exitDx=0;exitDy=0;entryX=0.938;entryY=1.02;entryDx=0;entryDy=0;entryPerimeter=0;endArrow=ERzeroToOne;endFill=0;" parent="1" source="Ubex0Ra7HCPxJ83cHDF8-5" target="32Z3iKF3l3qFzu09CNa0-7" edge="1">
          <mxGeometry relative="1" as="geometry" />
        </mxCell>
        <mxCell id="Ubex0Ra7HCPxJ83cHDF8-12" value="Exercises" style="whiteSpace=wrap;html=1;align=center;" parent="1" vertex="1">
          <mxGeometry x="820" y="882" width="100" height="40" as="geometry" />
        </mxCell>
        <mxCell id="Ubex0Ra7HCPxJ83cHDF8-13" value="Recipes" style="shape=ext;margin=3;double=1;whiteSpace=wrap;html=1;align=center;" parent="1" vertex="1">
          <mxGeometry x="-96.25" y="756.5" width="100" height="40" as="geometry" />
        </mxCell>
        <mxCell id="Ubex0Ra7HCPxJ83cHDF8-20" value="Meal Plan" style="shape=ext;margin=3;double=1;whiteSpace=wrap;html=1;align=center;" parent="1" vertex="1">
          <mxGeometry x="-650" y="340" width="100" height="40" as="geometry" />
        </mxCell>
        <mxCell id="Ubex0Ra7HCPxJ83cHDF8-26" style="edgeStyle=orthogonalEdgeStyle;rounded=0;orthogonalLoop=1;jettySize=auto;html=1;entryX=1;entryY=0.5;entryDx=0;entryDy=0;endArrow=ERzeroToMany;endFill=0;" parent="1" source="Ubex0Ra7HCPxJ83cHDF8-21" target="Ubex0Ra7HCPxJ83cHDF8-20" edge="1">
          <mxGeometry relative="1" as="geometry" />
        </mxCell>
        <mxCell id="Ubex0Ra7HCPxJ83cHDF8-21" value="Followed Meal Plans" style="shape=associativeEntity;whiteSpace=wrap;html=1;align=center;" parent="1" vertex="1">
          <mxGeometry x="-500" y="330" width="140" height="60" as="geometry" />
        </mxCell>
        <mxCell id="Ubex0Ra7HCPxJ83cHDF8-27" value="Exercise Plans" style="shape=ext;margin=3;double=1;whiteSpace=wrap;html=1;align=center;" parent="1" vertex="1">
          <mxGeometry x="820" y="958" width="100" height="40" as="geometry" />
        </mxCell>
        <mxCell id="Ubex0Ra7HCPxJ83cHDF8-31" style="edgeStyle=orthogonalEdgeStyle;rounded=0;orthogonalLoop=1;jettySize=auto;html=1;exitX=1;exitY=0.5;exitDx=0;exitDy=0;entryX=0;entryY=0.5;entryDx=0;entryDy=0;endArrow=ERzeroToMany;endFill=0;" parent="1" source="Ubex0Ra7HCPxJ83cHDF8-29" target="Ubex0Ra7HCPxJ83cHDF8-27" edge="1">
          <mxGeometry relative="1" as="geometry" />
        </mxCell>
        <mxCell id="Ubex0Ra7HCPxJ83cHDF8-29" value="Followed Exercise Plans" style="shape=associativeEntity;whiteSpace=wrap;html=1;align=center;" parent="1" vertex="1">
          <mxGeometry x="640" y="948" width="140" height="60" as="geometry" />
        </mxCell>
        <mxCell id="Ubex0Ra7HCPxJ83cHDF8-32" style="edgeStyle=orthogonalEdgeStyle;rounded=0;orthogonalLoop=1;jettySize=auto;html=1;exitX=0;exitY=0.5;exitDx=0;exitDy=0;endArrow=ERzeroToMany;endFill=0;entryX=0.89;entryY=1.036;entryDx=0;entryDy=0;entryPerimeter=0;" parent="1" source="Ubex0Ra7HCPxJ83cHDF8-29" target="32Z3iKF3l3qFzu09CNa0-7" edge="1">
          <mxGeometry relative="1" as="geometry">
            <mxPoint x="559" y="610" as="targetPoint" />
            <mxPoint x="640" y="880" as="sourcePoint" />
          </mxGeometry>
        </mxCell>
        <mxCell id="Ubex0Ra7HCPxJ83cHDF8-34" style="edgeStyle=orthogonalEdgeStyle;rounded=0;orthogonalLoop=1;jettySize=auto;html=1;exitX=0;exitY=0.5;exitDx=0;exitDy=0;endArrow=ERzeroToMany;endFill=0;" parent="1" source="Ubex0Ra7HCPxJ83cHDF8-33" target="32Z3iKF3l3qFzu09CNa0-7" edge="1">
          <mxGeometry relative="1" as="geometry">
            <mxPoint x="523" y="470" as="targetPoint" />
            <Array as="points">
              <mxPoint x="540" y="307" />
            </Array>
          </mxGeometry>
        </mxCell>
        <mxCell id="Ubex0Ra7HCPxJ83cHDF8-33" value="Friends" style="shape=associativeEntity;whiteSpace=wrap;html=1;align=center;" parent="1" vertex="1">
          <mxGeometry x="560" y="277" width="140" height="60" as="geometry" />
        </mxCell>
        <mxCell id="Ubex0Ra7HCPxJ83cHDF8-35" style="edgeStyle=orthogonalEdgeStyle;rounded=0;orthogonalLoop=1;jettySize=auto;html=1;exitX=1;exitY=0.5;exitDx=0;exitDy=0;entryX=0.877;entryY=-0.015;entryDx=0;entryDy=0;entryPerimeter=0;endArrow=ERzeroToMany;endFill=0;" parent="1" source="Ubex0Ra7HCPxJ83cHDF8-33" target="32Z3iKF3l3qFzu09CNa0-7" edge="1">
          <mxGeometry relative="1" as="geometry">
            <Array as="points">
              <mxPoint x="720" y="307" />
              <mxPoint x="720" y="380" />
              <mxPoint x="559" y="380" />
            </Array>
          </mxGeometry>
        </mxCell>
        <mxCell id="Ubex0Ra7HCPxJ83cHDF8-57" style="edgeStyle=orthogonalEdgeStyle;rounded=0;orthogonalLoop=1;jettySize=auto;html=1;exitX=1;exitY=0.5;exitDx=0;exitDy=0;entryX=0;entryY=0.5;entryDx=0;entryDy=0;endArrow=ERmany;endFill=0;" parent="1" source="Ubex0Ra7HCPxJ83cHDF8-58" target="Ubex0Ra7HCPxJ83cHDF8-59" edge="1">
          <mxGeometry relative="1" as="geometry" />
        </mxCell>
        <mxCell id="Ubex0Ra7HCPxJ83cHDF8-60" style="edgeStyle=orthogonalEdgeStyle;rounded=0;orthogonalLoop=1;jettySize=auto;html=1;entryX=0.943;entryY=-0.008;entryDx=0;entryDy=0;entryPerimeter=0;endArrow=ERmandOne;endFill=0;exitX=0;exitY=0.5;exitDx=0;exitDy=0;" parent="1" source="Ubex0Ra7HCPxJ83cHDF8-58" target="32Z3iKF3l3qFzu09CNa0-7" edge="1">
          <mxGeometry relative="1" as="geometry">
            <mxPoint x="580" y="400" as="targetPoint" />
            <Array as="points">
              <mxPoint x="750" y="326" />
              <mxPoint x="750" y="390" />
              <mxPoint x="579" y="390" />
            </Array>
          </mxGeometry>
        </mxCell>
        <mxCell id="Ubex0Ra7HCPxJ83cHDF8-58" value="Have" style="shape=rhombus;perimeter=rhombusPerimeter;whiteSpace=wrap;html=1;align=center;" parent="1" vertex="1">
          <mxGeometry x="770" y="296" width="120" height="60" as="geometry" />
        </mxCell>
        <mxCell id="Ubex0Ra7HCPxJ83cHDF8-59" value="Step Counter" style="shape=ext;margin=3;double=1;whiteSpace=wrap;html=1;align=center;" parent="1" vertex="1">
          <mxGeometry x="920" y="304" width="100" height="40" as="geometry" />
        </mxCell>
        <mxCell id="Ubex0Ra7HCPxJ83cHDF8-61" style="edgeStyle=orthogonalEdgeStyle;rounded=0;orthogonalLoop=1;jettySize=auto;html=1;exitX=1;exitY=0.5;exitDx=0;exitDy=0;entryX=0;entryY=0.5;entryDx=0;entryDy=0;endArrow=ERzeroToMany;endFill=0;" parent="1" source="Ubex0Ra7HCPxJ83cHDF8-63" target="Ubex0Ra7HCPxJ83cHDF8-64" edge="1">
          <mxGeometry relative="1" as="geometry" />
        </mxCell>
        <mxCell id="Ubex0Ra7HCPxJ83cHDF8-62" style="edgeStyle=orthogonalEdgeStyle;rounded=0;orthogonalLoop=1;jettySize=auto;html=1;exitX=0;exitY=0.5;exitDx=0;exitDy=0;endArrow=ERmandOne;endFill=0;entryX=0.838;entryY=1.027;entryDx=0;entryDy=0;entryPerimeter=0;" parent="1" source="Ubex0Ra7HCPxJ83cHDF8-63" target="32Z3iKF3l3qFzu09CNa0-7" edge="1">
          <mxGeometry relative="1" as="geometry">
            <mxPoint x="520" y="947" as="targetPoint" />
          </mxGeometry>
        </mxCell>
        <mxCell id="Ubex0Ra7HCPxJ83cHDF8-63" value="Input" style="shape=rhombus;perimeter=rhombusPerimeter;whiteSpace=wrap;html=1;align=center;" parent="1" vertex="1">
          <mxGeometry x="650" y="1091" width="120" height="60" as="geometry" />
        </mxCell>
        <mxCell id="Ubex0Ra7HCPxJ83cHDF8-64" value="Sleep Logs" style="shape=ext;margin=3;double=1;whiteSpace=wrap;html=1;align=center;" parent="1" vertex="1">
          <mxGeometry x="820" y="1101" width="100" height="40" as="geometry" />
        </mxCell>
        <mxCell id="Ubex0Ra7HCPxJ83cHDF8-75" style="edgeStyle=orthogonalEdgeStyle;rounded=0;orthogonalLoop=1;jettySize=auto;html=1;exitX=0;exitY=0.5;exitDx=0;exitDy=0;entryX=1;entryY=0.5;entryDx=0;entryDy=0;endArrow=ERzeroToMany;endFill=0;" parent="1" source="Ubex0Ra7HCPxJ83cHDF8-72" target="9misM1SqA0BYNmYFmZ5R-15" edge="1">
          <mxGeometry relative="1" as="geometry">
            <mxPoint x="170" y="227" as="targetPoint" />
          </mxGeometry>
        </mxCell>
        <mxCell id="Ubex0Ra7HCPxJ83cHDF8-72" value="Sent" style="shape=rhombus;perimeter=rhombusPerimeter;whiteSpace=wrap;html=1;align=center;" parent="1" vertex="1">
          <mxGeometry x="190" y="197" width="120" height="60" as="geometry" />
        </mxCell>
        <mxCell id="Ubex0Ra7HCPxJ83cHDF8-76" value="Food Challenges" style="whiteSpace=wrap;html=1;align=center;" parent="1" vertex="1">
          <mxGeometry x="-560" y="172" width="100" height="40" as="geometry" />
        </mxCell>
        <mxCell id="Ubex0Ra7HCPxJ83cHDF8-78" style="edgeStyle=orthogonalEdgeStyle;rounded=0;orthogonalLoop=1;jettySize=auto;html=1;exitX=0;exitY=0.5;exitDx=0;exitDy=0;entryX=1;entryY=0.5;entryDx=0;entryDy=0;endArrow=ERzeroToMany;endFill=0;" parent="1" source="Ubex0Ra7HCPxJ83cHDF8-77" target="Ubex0Ra7HCPxJ83cHDF8-76" edge="1">
          <mxGeometry relative="1" as="geometry" />
        </mxCell>
        <mxCell id="Ubex0Ra7HCPxJ83cHDF8-79" style="edgeStyle=orthogonalEdgeStyle;rounded=0;orthogonalLoop=1;jettySize=auto;html=1;exitX=1;exitY=0.5;exitDx=0;exitDy=0;entryX=0.048;entryY=0;entryDx=0;entryDy=0;entryPerimeter=0;endArrow=ERzeroToMany;endFill=0;" parent="1" source="Ubex0Ra7HCPxJ83cHDF8-77" target="32Z3iKF3l3qFzu09CNa0-7" edge="1">
          <mxGeometry relative="1" as="geometry">
            <mxPoint x="320" y="360" as="targetPoint" />
            <Array as="points">
              <mxPoint x="319" y="192" />
            </Array>
          </mxGeometry>
        </mxCell>
        <mxCell id="Ubex0Ra7HCPxJ83cHDF8-77" value="Accepted Food Challenges" style="shape=associativeEntity;whiteSpace=wrap;html=1;align=center;" parent="1" vertex="1">
          <mxGeometry x="-420.25" y="162" width="140" height="60" as="geometry" />
        </mxCell>
        <mxCell id="Ubex0Ra7HCPxJ83cHDF8-80" value="Exercise Challenges" style="whiteSpace=wrap;html=1;align=center;" parent="1" vertex="1">
          <mxGeometry x="-560" y="238" width="100" height="40" as="geometry" />
        </mxCell>
        <mxCell id="Ubex0Ra7HCPxJ83cHDF8-81" style="edgeStyle=orthogonalEdgeStyle;rounded=0;orthogonalLoop=1;jettySize=auto;html=1;exitX=0;exitY=0.5;exitDx=0;exitDy=0;entryX=1;entryY=0.5;entryDx=0;entryDy=0;endArrow=ERzeroToMany;endFill=0;" parent="1" source="Ubex0Ra7HCPxJ83cHDF8-83" target="Ubex0Ra7HCPxJ83cHDF8-80" edge="1">
          <mxGeometry relative="1" as="geometry" />
        </mxCell>
        <mxCell id="Ubex0Ra7HCPxJ83cHDF8-83" value="Accepted Exercise Challenges" style="shape=associativeEntity;whiteSpace=wrap;html=1;align=center;" parent="1" vertex="1">
          <mxGeometry x="-420.25" y="228" width="140" height="60" as="geometry" />
        </mxCell>
        <mxCell id="Ubex0Ra7HCPxJ83cHDF8-85" value="Time Zones" style="whiteSpace=wrap;html=1;align=center;" parent="1" vertex="1">
          <mxGeometry x="730" y="217" width="100" height="40" as="geometry" />
        </mxCell>
        <mxCell id="Ubex0Ra7HCPxJ83cHDF8-87" style="edgeStyle=orthogonalEdgeStyle;rounded=0;orthogonalLoop=1;jettySize=auto;html=1;entryX=0;entryY=0.5;entryDx=0;entryDy=0;endArrow=ERzeroToOne;endFill=0;exitX=1;exitY=0.5;exitDx=0;exitDy=0;" parent="1" source="0hOv-4cGE1IFnxYp0O-4-39" target="Ubex0Ra7HCPxJ83cHDF8-85" edge="1">
          <mxGeometry relative="1" as="geometry">
            <mxPoint x="700" y="237" as="sourcePoint" />
          </mxGeometry>
        </mxCell>
        <mxCell id="Ubex0Ra7HCPxJ83cHDF8-89" style="edgeStyle=orthogonalEdgeStyle;rounded=0;orthogonalLoop=1;jettySize=auto;html=1;entryX=0.75;entryY=0;entryDx=0;entryDy=0;endArrow=ERzeroToMany;endFill=0;exitX=0;exitY=0.5;exitDx=0;exitDy=0;" parent="1" source="0hOv-4cGE1IFnxYp0O-4-39" target="32Z3iKF3l3qFzu09CNa0-7" edge="1">
          <mxGeometry relative="1" as="geometry">
            <mxPoint x="560" y="260" as="sourcePoint" />
          </mxGeometry>
        </mxCell>
        <mxCell id="Ubex0Ra7HCPxJ83cHDF8-92" style="edgeStyle=orthogonalEdgeStyle;rounded=0;orthogonalLoop=1;jettySize=auto;html=1;entryX=0.5;entryY=1;entryDx=0;entryDy=0;endArrow=ERzeroToOne;endFill=0;exitX=0.5;exitY=0;exitDx=0;exitDy=0;" parent="1" source="0hOv-4cGE1IFnxYp0O-4-41" target="Ubex0Ra7HCPxJ83cHDF8-91" edge="1">
          <mxGeometry relative="1" as="geometry">
            <mxPoint x="510" y="140" as="sourcePoint" />
          </mxGeometry>
        </mxCell>
        <mxCell id="Ubex0Ra7HCPxJ83cHDF8-93" style="edgeStyle=orthogonalEdgeStyle;rounded=0;orthogonalLoop=1;jettySize=auto;html=1;exitX=0.5;exitY=1;exitDx=0;exitDy=0;entryX=0.703;entryY=-0.018;entryDx=0;entryDy=0;entryPerimeter=0;endArrow=ERzeroToMany;endFill=0;" parent="1" source="0hOv-4cGE1IFnxYp0O-4-41" target="32Z3iKF3l3qFzu09CNa0-7" edge="1">
          <mxGeometry relative="1" as="geometry">
            <Array as="points">
              <mxPoint x="509" y="210" />
            </Array>
            <mxPoint x="510" y="200" as="sourcePoint" />
          </mxGeometry>
        </mxCell>
        <mxCell id="Ubex0Ra7HCPxJ83cHDF8-100" value="Nutritional Information" style="shape=ext;margin=3;double=1;whiteSpace=wrap;html=1;align=center;" parent="1" vertex="1">
          <mxGeometry x="-634" y="884" width="100" height="40" as="geometry" />
        </mxCell>
        <mxCell id="Ubex0Ra7HCPxJ83cHDF8-108" style="edgeStyle=orthogonalEdgeStyle;rounded=0;orthogonalLoop=1;jettySize=auto;html=1;exitX=1;exitY=0.5;exitDx=0;exitDy=0;entryX=0;entryY=0.5;entryDx=0;entryDy=0;endArrow=ERzeroToMany;endFill=0;" parent="1" source="Ubex0Ra7HCPxJ83cHDF8-107" target="Ubex0Ra7HCPxJ83cHDF8-13" edge="1">
          <mxGeometry relative="1" as="geometry" />
        </mxCell>
        <mxCell id="Ubex0Ra7HCPxJ83cHDF8-111" style="edgeStyle=orthogonalEdgeStyle;rounded=0;orthogonalLoop=1;jettySize=auto;html=1;exitX=1;exitY=0.75;exitDx=0;exitDy=0;entryX=0;entryY=0.25;entryDx=0;entryDy=0;endArrow=ERoneToMany;endFill=0;" parent="1" source="Ubex0Ra7HCPxJ83cHDF8-107" target="32Z3iKF3l3qFzu09CNa0-57" edge="1">
          <mxGeometry relative="1" as="geometry">
            <Array as="points">
              <mxPoint x="-110" y="792" />
              <mxPoint x="-110" y="888" />
            </Array>
          </mxGeometry>
        </mxCell>
        <mxCell id="9misM1SqA0BYNmYFmZ5R-114" style="edgeStyle=orthogonalEdgeStyle;rounded=0;orthogonalLoop=1;jettySize=auto;html=1;exitX=0.5;exitY=1;exitDx=0;exitDy=0;entryX=0;entryY=0.5;entryDx=0;entryDy=0;endArrow=none;endFill=0;" edge="1" parent="1" target="0hOv-4cGE1IFnxYp0O-4-202">
          <mxGeometry relative="1" as="geometry">
            <mxPoint x="-258.25" y="806.5" as="sourcePoint" />
            <Array as="points">
              <mxPoint x="-258" y="853" />
            </Array>
          </mxGeometry>
        </mxCell>
        <mxCell id="Ubex0Ra7HCPxJ83cHDF8-107" value="Used in Recipe" style="shape=associativeEntity;whiteSpace=wrap;html=1;align=center;" parent="1" vertex="1">
          <mxGeometry x="-326.25" y="746.5" width="140" height="60" as="geometry" />
        </mxCell>
        <mxCell id="Ubex0Ra7HCPxJ83cHDF8-125" style="edgeStyle=orthogonalEdgeStyle;rounded=0;orthogonalLoop=1;jettySize=auto;html=1;exitX=1;exitY=0.5;exitDx=0;exitDy=0;entryX=0.5;entryY=0;entryDx=0;entryDy=0;endArrow=ERzeroToMany;endFill=0;" parent="1" source="0hOv-4cGE1IFnxYp0O-4-84" target="Ubex0Ra7HCPxJ83cHDF8-13" edge="1">
          <mxGeometry relative="1" as="geometry">
            <mxPoint x="-286.2500000000002" y="550" as="sourcePoint" />
          </mxGeometry>
        </mxCell>
        <mxCell id="0hOv-4cGE1IFnxYp0O-4-3" style="edgeStyle=orthogonalEdgeStyle;rounded=0;orthogonalLoop=1;jettySize=auto;html=1;endArrow=ERzeroToMany;endFill=0;exitX=0;exitY=0.5;exitDx=0;exitDy=0;entryX=1;entryY=1;entryDx=0;entryDy=0;" parent="1" source="0hOv-4cGE1IFnxYp0O-4-84" target="Ubex0Ra7HCPxJ83cHDF8-20" edge="1">
          <mxGeometry relative="1" as="geometry">
            <mxPoint x="-363" y="600" as="sourcePoint" />
            <Array as="points">
              <mxPoint x="-370" y="600" />
              <mxPoint x="-370" y="430" />
              <mxPoint x="-550" y="430" />
            </Array>
            <mxPoint x="-553" y="352" as="targetPoint" />
          </mxGeometry>
        </mxCell>
        <mxCell id="KZsEy8aUsTh1ePcl9788-9" style="edgeStyle=orthogonalEdgeStyle;rounded=0;orthogonalLoop=1;jettySize=auto;html=1;exitX=0.5;exitY=0;exitDx=0;exitDy=0;entryX=0.5;entryY=1;entryDx=0;entryDy=0;endArrow=ERzeroToMany;endFill=0;" parent="1" edge="1">
          <mxGeometry relative="1" as="geometry">
            <mxPoint x="1150" y="750" as="sourcePoint" />
          </mxGeometry>
        </mxCell>
        <mxCell id="KZsEy8aUsTh1ePcl9788-11" style="edgeStyle=orthogonalEdgeStyle;rounded=0;orthogonalLoop=1;jettySize=auto;html=1;exitX=1;exitY=0.5;exitDx=0;exitDy=0;entryX=0;entryY=0.5;entryDx=0;entryDy=0;endArrow=ERzeroToMany;endFill=0;" parent="1" edge="1">
          <mxGeometry relative="1" as="geometry">
            <mxPoint x="1100" y="660" as="targetPoint" />
          </mxGeometry>
        </mxCell>
        <mxCell id="KZsEy8aUsTh1ePcl9788-27" value="Restrictions Log" style="shape=associativeEntity;whiteSpace=wrap;html=1;align=center;" parent="1" vertex="1">
          <mxGeometry x="110" y="530" width="140" height="60" as="geometry" />
        </mxCell>
        <mxCell id="Zpv9UvLriDffYdWMjb3y-1" value="Allergies and Restrictions" style="whiteSpace=wrap;html=1;align=center;" parent="1" vertex="1">
          <mxGeometry x="-30" y="519" width="100" height="40" as="geometry" />
        </mxCell>
        <mxCell id="Zpv9UvLriDffYdWMjb3y-14" style="edgeStyle=orthogonalEdgeStyle;rounded=0;orthogonalLoop=1;jettySize=auto;html=1;endArrow=ERzeroToMany;endFill=0;entryX=0.429;entryY=1.03;entryDx=0;entryDy=0;entryPerimeter=0;" parent="1" source="Zpv9UvLriDffYdWMjb3y-13" target="32Z3iKF3l3qFzu09CNa0-7" edge="1">
          <mxGeometry relative="1" as="geometry">
            <mxPoint x="430" y="680" as="targetPoint" />
            <Array as="points">
              <mxPoint x="210" y="1050" />
              <mxPoint x="429" y="1050" />
            </Array>
          </mxGeometry>
        </mxCell>
        <mxCell id="Zpv9UvLriDffYdWMjb3y-15" style="edgeStyle=orthogonalEdgeStyle;rounded=0;orthogonalLoop=1;jettySize=auto;html=1;endArrow=ERzeroToMany;endFill=0;entryX=0.5;entryY=1;entryDx=0;entryDy=0;exitX=0;exitY=0.5;exitDx=0;exitDy=0;" parent="1" source="Zpv9UvLriDffYdWMjb3y-13" target="32Z3iKF3l3qFzu09CNa0-57" edge="1">
          <mxGeometry relative="1" as="geometry">
            <mxPoint x="60" y="1056.5" as="targetPoint" />
            <Array as="points">
              <mxPoint x="100" y="1086.5" />
              <mxPoint x="100" y="936.5" />
              <mxPoint x="-46" y="936.5" />
            </Array>
          </mxGeometry>
        </mxCell>
        <mxCell id="Zpv9UvLriDffYdWMjb3y-13" value="Food Log" style="shape=associativeEntity;whiteSpace=wrap;html=1;align=center;" parent="1" vertex="1">
          <mxGeometry x="140" y="1056.5" width="140" height="60" as="geometry" />
        </mxCell>
        <mxCell id="Zpv9UvLriDffYdWMjb3y-17" style="edgeStyle=orthogonalEdgeStyle;rounded=0;orthogonalLoop=1;jettySize=auto;html=1;entryX=1;entryY=0.5;entryDx=0;entryDy=0;endArrow=ERzeroToMany;endFill=0;" parent="1" source="Zpv9UvLriDffYdWMjb3y-16" target="Ubex0Ra7HCPxJ83cHDF8-12" edge="1">
          <mxGeometry relative="1" as="geometry" />
        </mxCell>
        <mxCell id="Zpv9UvLriDffYdWMjb3y-16" value="Exercise Log" style="shape=associativeEntity;whiteSpace=wrap;html=1;align=center;" parent="1" vertex="1">
          <mxGeometry x="1076" y="872" width="140" height="60" as="geometry" />
        </mxCell>
        <mxCell id="Zpv9UvLriDffYdWMjb3y-18" style="edgeStyle=orthogonalEdgeStyle;rounded=0;orthogonalLoop=1;jettySize=auto;html=1;endArrow=ERzeroToMany;endFill=0;exitX=0.5;exitY=0;exitDx=0;exitDy=0;entryX=0.993;entryY=0.933;entryDx=0;entryDy=0;entryPerimeter=0;" parent="1" source="Zpv9UvLriDffYdWMjb3y-16" target="32Z3iKF3l3qFzu09CNa0-7" edge="1">
          <mxGeometry relative="1" as="geometry">
            <Array as="points">
              <mxPoint x="1146" y="770" />
              <mxPoint x="610" y="770" />
              <mxPoint x="610" y="573" />
            </Array>
            <mxPoint x="610" y="630" as="targetPoint" />
          </mxGeometry>
        </mxCell>
        <mxCell id="Zpv9UvLriDffYdWMjb3y-19" style="edgeStyle=orthogonalEdgeStyle;rounded=0;orthogonalLoop=1;jettySize=auto;html=1;endArrow=ERone;endFill=0;entryX=0.129;entryY=-0.011;entryDx=0;entryDy=0;entryPerimeter=0;exitX=0.5;exitY=1;exitDx=0;exitDy=0;" parent="1" source="Ubex0Ra7HCPxJ83cHDF8-72" target="32Z3iKF3l3qFzu09CNa0-7" edge="1">
          <mxGeometry relative="1" as="geometry">
            <Array as="points">
              <mxPoint x="250" y="270" />
              <mxPoint x="342" y="270" />
            </Array>
            <mxPoint x="342" y="400" as="targetPoint" />
          </mxGeometry>
        </mxCell>
        <mxCell id="Zpv9UvLriDffYdWMjb3y-20" style="edgeStyle=orthogonalEdgeStyle;rounded=0;orthogonalLoop=1;jettySize=auto;html=1;endArrow=ERzeroToMany;endFill=0;" parent="1" source="Zpv9UvLriDffYdWMjb3y-29" target="Zpv9UvLriDffYdWMjb3y-21" edge="1">
          <mxGeometry relative="1" as="geometry" />
        </mxCell>
        <mxCell id="Zpv9UvLriDffYdWMjb3y-21" value="Posts" style="whiteSpace=wrap;html=1;align=center;" parent="1" vertex="1">
          <mxGeometry x="60" y="-60" width="100" height="40" as="geometry" />
        </mxCell>
        <mxCell id="Zpv9UvLriDffYdWMjb3y-22" value="Comments" style="shape=ext;margin=3;double=1;whiteSpace=wrap;html=1;align=center;" parent="1" vertex="1">
          <mxGeometry x="60" y="90" width="100" height="40" as="geometry" />
        </mxCell>
        <mxCell id="Zpv9UvLriDffYdWMjb3y-23" style="edgeStyle=orthogonalEdgeStyle;rounded=0;orthogonalLoop=1;jettySize=auto;html=1;endArrow=ERzeroToMany;endFill=0;" parent="1" source="Zpv9UvLriDffYdWMjb3y-28" target="Zpv9UvLriDffYdWMjb3y-22" edge="1">
          <mxGeometry relative="1" as="geometry" />
        </mxCell>
        <mxCell id="Zpv9UvLriDffYdWMjb3y-24" style="edgeStyle=orthogonalEdgeStyle;rounded=0;orthogonalLoop=1;jettySize=auto;html=1;exitX=0.5;exitY=1;exitDx=0;exitDy=0;entryX=0.5;entryY=0;entryDx=0;entryDy=0;endArrow=ERzeroToMany;endFill=0;" parent="1" source="Zpv9UvLriDffYdWMjb3y-26" target="Zpv9UvLriDffYdWMjb3y-22" edge="1">
          <mxGeometry relative="1" as="geometry" />
        </mxCell>
        <mxCell id="Zpv9UvLriDffYdWMjb3y-25" style="edgeStyle=orthogonalEdgeStyle;rounded=0;orthogonalLoop=1;jettySize=auto;html=1;exitX=0.5;exitY=0;exitDx=0;exitDy=0;endArrow=ERmandOne;endFill=0;" parent="1" source="Zpv9UvLriDffYdWMjb3y-26" target="Zpv9UvLriDffYdWMjb3y-21" edge="1">
          <mxGeometry relative="1" as="geometry" />
        </mxCell>
        <mxCell id="Zpv9UvLriDffYdWMjb3y-26" value="Assigned" style="shape=rhombus;perimeter=rhombusPerimeter;whiteSpace=wrap;html=1;align=center;" parent="1" vertex="1">
          <mxGeometry x="50" width="120" height="60" as="geometry" />
        </mxCell>
        <mxCell id="Zpv9UvLriDffYdWMjb3y-29" value="Create" style="shape=rhombus;perimeter=rhombusPerimeter;whiteSpace=wrap;html=1;align=center;" parent="1" vertex="1">
          <mxGeometry x="340" y="-70" width="120" height="60" as="geometry" />
        </mxCell>
        <mxCell id="Zpv9UvLriDffYdWMjb3y-31" style="edgeStyle=orthogonalEdgeStyle;rounded=0;orthogonalLoop=1;jettySize=auto;html=1;entryX=0.19;entryY=-0.027;entryDx=0;entryDy=0;entryPerimeter=0;endArrow=ERmandOne;endFill=0;" parent="1" source="Zpv9UvLriDffYdWMjb3y-28" target="32Z3iKF3l3qFzu09CNa0-7" edge="1">
          <mxGeometry relative="1" as="geometry" />
        </mxCell>
        <mxCell id="Zpv9UvLriDffYdWMjb3y-33" style="edgeStyle=orthogonalEdgeStyle;rounded=0;orthogonalLoop=1;jettySize=auto;html=1;exitX=0.5;exitY=1;exitDx=0;exitDy=0;entryX=0.328;entryY=-0.009;entryDx=0;entryDy=0;entryPerimeter=0;endArrow=ERzeroToOne;endFill=0;" parent="1" source="Zpv9UvLriDffYdWMjb3y-29" target="32Z3iKF3l3qFzu09CNa0-7" edge="1">
          <mxGeometry relative="1" as="geometry" />
        </mxCell>
        <mxCell id="Zpv9UvLriDffYdWMjb3y-28" value="Create" style="shape=rhombus;perimeter=rhombusPerimeter;whiteSpace=wrap;html=1;align=center;" parent="1" vertex="1">
          <mxGeometry x="300" y="80" width="120" height="60" as="geometry" />
        </mxCell>
        <mxCell id="Zpv9UvLriDffYdWMjb3y-35" style="edgeStyle=orthogonalEdgeStyle;rounded=0;orthogonalLoop=1;jettySize=auto;html=1;exitX=1;exitY=0.5;exitDx=0;exitDy=0;entryX=-0.003;entryY=0.627;entryDx=0;entryDy=0;entryPerimeter=0;endArrow=ERzeroToMany;endFill=0;" parent="1" source="KZsEy8aUsTh1ePcl9788-27" target="32Z3iKF3l3qFzu09CNa0-7" edge="1">
          <mxGeometry relative="1" as="geometry">
            <Array as="points">
              <mxPoint x="260" y="560" />
              <mxPoint x="260" y="539" />
            </Array>
          </mxGeometry>
        </mxCell>
        <mxCell id="Zpv9UvLriDffYdWMjb3y-37" style="edgeStyle=orthogonalEdgeStyle;rounded=0;orthogonalLoop=1;jettySize=auto;html=1;exitX=0.5;exitY=1;exitDx=0;exitDy=0;entryX=0;entryY=0.136;entryDx=0;entryDy=0;entryPerimeter=0;endArrow=ERzeroToMany;endFill=0;" parent="1" source="Ubex0Ra7HCPxJ83cHDF8-83" target="32Z3iKF3l3qFzu09CNa0-7" edge="1">
          <mxGeometry relative="1" as="geometry">
            <Array as="points">
              <mxPoint x="-350" y="426" />
              <mxPoint x="290" y="426" />
              <mxPoint x="290" y="485" />
            </Array>
          </mxGeometry>
        </mxCell>
        <mxCell id="Zpv9UvLriDffYdWMjb3y-38" style="edgeStyle=orthogonalEdgeStyle;rounded=0;orthogonalLoop=1;jettySize=auto;html=1;entryX=-0.003;entryY=0.4;entryDx=0;entryDy=0;entryPerimeter=0;endArrow=ERzeroToMany;endFill=0;" parent="1" source="Ubex0Ra7HCPxJ83cHDF8-21" target="32Z3iKF3l3qFzu09CNa0-7" edge="1">
          <mxGeometry relative="1" as="geometry">
            <Array as="points">
              <mxPoint x="-430" y="420" />
              <mxPoint x="-360" y="420" />
              <mxPoint x="-360" y="514" />
            </Array>
          </mxGeometry>
        </mxCell>
        <mxCell id="32Z3iKF3l3qFzu09CNa0-71" value="Create" style="shape=rhombus;perimeter=rhombusPerimeter;whiteSpace=wrap;html=1;align=center;" parent="1" vertex="1">
          <mxGeometry x="236" y="794.5" width="120" height="60" as="geometry" />
        </mxCell>
        <mxCell id="Zpv9UvLriDffYdWMjb3y-45" value="Groups" style="whiteSpace=wrap;html=1;align=center;" parent="1" vertex="1">
          <mxGeometry x="1220" y="444" width="100" height="40" as="geometry" />
        </mxCell>
        <mxCell id="Zpv9UvLriDffYdWMjb3y-49" style="edgeStyle=orthogonalEdgeStyle;rounded=0;orthogonalLoop=1;jettySize=auto;html=1;endArrow=ERzeroToMany;endFill=0;entryX=0;entryY=0.5;entryDx=0;entryDy=0;" parent="1" source="Zpv9UvLriDffYdWMjb3y-46" target="Zpv9UvLriDffYdWMjb3y-45" edge="1">
          <mxGeometry relative="1" as="geometry">
            <mxPoint x="1160" y="480" as="targetPoint" />
            <Array as="points">
              <mxPoint x="1200" y="464" />
              <mxPoint x="1200" y="464" />
            </Array>
          </mxGeometry>
        </mxCell>
        <mxCell id="Zpv9UvLriDffYdWMjb3y-46" value="Create" style="shape=rhombus;perimeter=rhombusPerimeter;whiteSpace=wrap;html=1;align=center;" parent="1" vertex="1">
          <mxGeometry x="770" y="434" width="120" height="60" as="geometry" />
        </mxCell>
        <mxCell id="Zpv9UvLriDffYdWMjb3y-48" style="edgeStyle=orthogonalEdgeStyle;rounded=0;orthogonalLoop=1;jettySize=auto;html=1;exitX=1;exitY=0.5;exitDx=0;exitDy=0;entryX=0.5;entryY=1;entryDx=0;entryDy=0;endArrow=ERzeroToMany;endFill=0;" parent="1" source="0hOv-4cGE1IFnxYp0O-4-91" target="Zpv9UvLriDffYdWMjb3y-45" edge="1">
          <mxGeometry relative="1" as="geometry">
            <mxPoint x="1080" y="550" as="sourcePoint" />
          </mxGeometry>
        </mxCell>
        <mxCell id="Zpv9UvLriDffYdWMjb3y-52" style="edgeStyle=orthogonalEdgeStyle;rounded=0;orthogonalLoop=1;jettySize=auto;html=1;exitX=0.5;exitY=0;exitDx=0;exitDy=0;entryX=1;entryY=0.25;entryDx=0;entryDy=0;endArrow=ERzeroToMany;endFill=0;" parent="1" source="0hOv-4cGE1IFnxYp0O-4-91" target="32Z3iKF3l3qFzu09CNa0-7" edge="1">
          <mxGeometry relative="1" as="geometry">
            <mxPoint x="1020" y="520" as="sourcePoint" />
          </mxGeometry>
        </mxCell>
        <mxCell id="Zpv9UvLriDffYdWMjb3y-53" style="edgeStyle=orthogonalEdgeStyle;rounded=0;orthogonalLoop=1;jettySize=auto;html=1;entryX=1.003;entryY=0.118;entryDx=0;entryDy=0;entryPerimeter=0;endArrow=ERzeroToOne;endFill=0;exitX=0;exitY=0.5;exitDx=0;exitDy=0;" parent="1" source="Zpv9UvLriDffYdWMjb3y-46" target="32Z3iKF3l3qFzu09CNa0-7" edge="1">
          <mxGeometry relative="1" as="geometry">
            <Array as="points">
              <mxPoint x="750" y="464" />
              <mxPoint x="750" y="483" />
            </Array>
            <mxPoint x="770" y="470" as="sourcePoint" />
          </mxGeometry>
        </mxCell>
        <mxCell id="Zpv9UvLriDffYdWMjb3y-56" style="edgeStyle=orthogonalEdgeStyle;rounded=0;orthogonalLoop=1;jettySize=auto;html=1;entryX=0.5;entryY=1;entryDx=0;entryDy=0;endArrow=ERzeroToMany;endFill=0;exitX=0.5;exitY=0;exitDx=0;exitDy=0;" parent="1" source="0hOv-4cGE1IFnxYp0O-4-90" target="Ubex0Ra7HCPxJ83cHDF8-12" edge="1">
          <mxGeometry relative="1" as="geometry">
            <mxPoint x="970" y="821" as="sourcePoint" />
            <Array as="points">
              <mxPoint x="1135" y="950" />
              <mxPoint x="870" y="950" />
            </Array>
          </mxGeometry>
        </mxCell>
        <mxCell id="Zpv9UvLriDffYdWMjb3y-57" style="edgeStyle=orthogonalEdgeStyle;rounded=0;orthogonalLoop=1;jettySize=auto;html=1;entryX=1;entryY=0.5;entryDx=0;entryDy=0;endArrow=ERzeroToMany;endFill=0;exitX=0.5;exitY=1;exitDx=0;exitDy=0;" parent="1" source="0hOv-4cGE1IFnxYp0O-4-90" target="Ubex0Ra7HCPxJ83cHDF8-27" edge="1">
          <mxGeometry relative="1" as="geometry">
            <Array as="points">
              <mxPoint x="1135" y="1058" />
              <mxPoint x="1050" y="1058" />
              <mxPoint x="1050" y="978" />
            </Array>
            <mxPoint x="1029.9999999999995" y="968.9999999999995" as="sourcePoint" />
          </mxGeometry>
        </mxCell>
        <mxCell id="Zpv9UvLriDffYdWMjb3y-58" value="Uploaded" style="shape=rhombus;perimeter=rhombusPerimeter;whiteSpace=wrap;html=1;align=center;" parent="1" vertex="1">
          <mxGeometry x="470" y="-70" width="120" height="60" as="geometry" />
        </mxCell>
        <mxCell id="Zpv9UvLriDffYdWMjb3y-59" style="edgeStyle=orthogonalEdgeStyle;rounded=0;orthogonalLoop=1;jettySize=auto;html=1;exitX=1;exitY=0.5;exitDx=0;exitDy=0;entryX=0;entryY=0.5;entryDx=0;entryDy=0;endArrow=ERzeroToMany;endFill=0;" parent="1" source="Zpv9UvLriDffYdWMjb3y-58" target="Zpv9UvLriDffYdWMjb3y-60" edge="1">
          <mxGeometry relative="1" as="geometry">
            <mxPoint x="600" y="-40" as="sourcePoint" />
            <mxPoint x="650" y="-40" as="targetPoint" />
          </mxGeometry>
        </mxCell>
        <mxCell id="Zpv9UvLriDffYdWMjb3y-60" value="Multimedia" style="whiteSpace=wrap;html=1;align=center;" parent="1" vertex="1">
          <mxGeometry x="650" y="-60" width="100" height="40" as="geometry" />
        </mxCell>
        <mxCell id="Zpv9UvLriDffYdWMjb3y-61" style="edgeStyle=orthogonalEdgeStyle;rounded=0;orthogonalLoop=1;jettySize=auto;html=1;entryX=0.566;entryY=-0.009;entryDx=0;entryDy=0;entryPerimeter=0;endArrow=ERzeroToOne;endFill=0;" parent="1" source="Zpv9UvLriDffYdWMjb3y-58" target="32Z3iKF3l3qFzu09CNa0-7" edge="1">
          <mxGeometry relative="1" as="geometry">
            <Array as="points">
              <mxPoint x="480" y="230" />
              <mxPoint x="469" y="230" />
            </Array>
          </mxGeometry>
        </mxCell>
        <mxCell id="Ubex0Ra7HCPxJ83cHDF8-91" value="Locations" style="whiteSpace=wrap;html=1;align=center;" parent="1" vertex="1">
          <mxGeometry x="460" y="50" width="100" height="40" as="geometry" />
        </mxCell>
        <mxCell id="lQ856VbMLnPR7FZK5Fr0-2" value="Account" style="shape=ext;margin=3;double=1;whiteSpace=wrap;html=1;align=center;" parent="1" vertex="1">
          <mxGeometry x="390" y="300" width="100" height="40" as="geometry" />
        </mxCell>
        <mxCell id="32Z3iKF3l3qFzu09CNa0-1" value="ISA" style="shape=rhombus;perimeter=rhombusPerimeter;whiteSpace=wrap;html=1;align=center;" parent="1" vertex="1">
          <mxGeometry x="380" y="380" width="120" height="60" as="geometry" />
        </mxCell>
        <mxCell id="Zpv9UvLriDffYdWMjb3y-63" style="edgeStyle=orthogonalEdgeStyle;rounded=0;orthogonalLoop=1;jettySize=auto;html=1;exitX=1;exitY=0.5;exitDx=0;exitDy=0;entryX=0.5;entryY=0;entryDx=0;entryDy=0;endArrow=ERzeroToOne;endFill=0;" parent="1" source="Zpv9UvLriDffYdWMjb3y-62" target="Zpv9UvLriDffYdWMjb3y-60" edge="1">
          <mxGeometry relative="1" as="geometry" />
        </mxCell>
        <mxCell id="Zpv9UvLriDffYdWMjb3y-64" style="edgeStyle=orthogonalEdgeStyle;rounded=0;orthogonalLoop=1;jettySize=auto;html=1;exitX=0;exitY=0.5;exitDx=0;exitDy=0;endArrow=ERzeroToOne;endFill=0;" parent="1" source="Zpv9UvLriDffYdWMjb3y-62" target="Zpv9UvLriDffYdWMjb3y-21" edge="1">
          <mxGeometry relative="1" as="geometry" />
        </mxCell>
        <mxCell id="Zpv9UvLriDffYdWMjb3y-62" value="Multimedia to Post" style="shape=associativeEntity;whiteSpace=wrap;html=1;align=center;" parent="1" vertex="1">
          <mxGeometry x="460" y="-160" width="140" height="60" as="geometry" />
        </mxCell>
        <mxCell id="0hOv-4cGE1IFnxYp0O-4-4" value="Meal Category" style="whiteSpace=wrap;html=1;align=center;" parent="1" vertex="1">
          <mxGeometry x="-533" y="675.5" width="100" height="40" as="geometry" />
        </mxCell>
        <mxCell id="0hOv-4cGE1IFnxYp0O-4-6" style="edgeStyle=orthogonalEdgeStyle;rounded=0;orthogonalLoop=1;jettySize=auto;html=1;entryX=1;entryY=0.5;entryDx=0;entryDy=0;endArrow=ERzeroToMany;endFill=0;" parent="1" source="0hOv-4cGE1IFnxYp0O-4-5" target="0hOv-4cGE1IFnxYp0O-4-4" edge="1">
          <mxGeometry relative="1" as="geometry" />
        </mxCell>
        <mxCell id="0hOv-4cGE1IFnxYp0O-4-7" style="edgeStyle=orthogonalEdgeStyle;rounded=0;orthogonalLoop=1;jettySize=auto;html=1;entryX=0.25;entryY=0;entryDx=0;entryDy=0;endArrow=ERzeroToMany;endFill=0;" parent="1" source="0hOv-4cGE1IFnxYp0O-4-5" target="Ubex0Ra7HCPxJ83cHDF8-13" edge="1">
          <mxGeometry relative="1" as="geometry" />
        </mxCell>
        <mxCell id="0hOv-4cGE1IFnxYp0O-4-5" value="Recipe Categories" style="shape=associativeEntity;whiteSpace=wrap;html=1;align=center;" parent="1" vertex="1">
          <mxGeometry x="-394" y="666" width="140" height="60" as="geometry" />
        </mxCell>
        <mxCell id="0hOv-4cGE1IFnxYp0O-4-12" style="edgeStyle=orthogonalEdgeStyle;rounded=0;orthogonalLoop=1;jettySize=auto;html=1;entryX=1;entryY=0.25;entryDx=0;entryDy=0;endArrow=ERzeroToMany;endFill=0;" parent="1" source="0hOv-4cGE1IFnxYp0O-4-10" target="32Z3iKF3l3qFzu09CNa0-57" edge="1">
          <mxGeometry relative="1" as="geometry">
            <Array as="points">
              <mxPoint x="120" y="926.5" />
              <mxPoint x="120" y="887.5" />
            </Array>
          </mxGeometry>
        </mxCell>
        <mxCell id="0hOv-4cGE1IFnxYp0O-4-14" style="edgeStyle=orthogonalEdgeStyle;rounded=0;orthogonalLoop=1;jettySize=auto;html=1;entryX=0.25;entryY=1;entryDx=0;entryDy=0;endArrow=ERzeroToMany;endFill=0;" parent="1" source="0hOv-4cGE1IFnxYp0O-4-10" target="32Z3iKF3l3qFzu09CNa0-7" edge="1">
          <mxGeometry relative="1" as="geometry" />
        </mxCell>
        <mxCell id="0hOv-4cGE1IFnxYp0O-4-10" value="Grocery List" style="shape=associativeEntity;whiteSpace=wrap;html=1;align=center;" parent="1" vertex="1">
          <mxGeometry x="140" y="896.5" width="140" height="60" as="geometry" />
        </mxCell>
        <mxCell id="0hOv-4cGE1IFnxYp0O-4-13" style="edgeStyle=orthogonalEdgeStyle;rounded=0;orthogonalLoop=1;jettySize=auto;html=1;exitX=0;exitY=0.5;exitDx=0;exitDy=0;entryX=1;entryY=0.75;entryDx=0;entryDy=0;endArrow=ERzeroToMany;endFill=0;" parent="1" source="0hOv-4cGE1IFnxYp0O-4-11" target="32Z3iKF3l3qFzu09CNa0-57" edge="1">
          <mxGeometry relative="1" as="geometry">
            <Array as="points">
              <mxPoint x="110" y="1007.5" />
              <mxPoint x="110" y="907.5" />
            </Array>
          </mxGeometry>
        </mxCell>
        <mxCell id="0hOv-4cGE1IFnxYp0O-4-11" value="Food Inventory" style="shape=associativeEntity;whiteSpace=wrap;html=1;align=center;" parent="1" vertex="1">
          <mxGeometry x="140" y="977.5" width="140" height="60" as="geometry" />
        </mxCell>
        <mxCell id="0hOv-4cGE1IFnxYp0O-4-15" style="edgeStyle=orthogonalEdgeStyle;rounded=0;orthogonalLoop=1;jettySize=auto;html=1;entryX=0.365;entryY=1.02;entryDx=0;entryDy=0;entryPerimeter=0;endArrow=ERzeroToMany;endFill=0;exitX=1;exitY=0.5;exitDx=0;exitDy=0;" parent="1" source="0hOv-4cGE1IFnxYp0O-4-11" target="32Z3iKF3l3qFzu09CNa0-7" edge="1">
          <mxGeometry relative="1" as="geometry">
            <Array as="points">
              <mxPoint x="290" y="1008" />
              <mxPoint x="290" y="990" />
              <mxPoint x="411" y="990" />
            </Array>
          </mxGeometry>
        </mxCell>
        <mxCell id="0hOv-4cGE1IFnxYp0O-4-29" value="Newsfeed" style="whiteSpace=wrap;html=1;align=center;" parent="1" vertex="1">
          <mxGeometry x="-120" y="60" width="100" height="40" as="geometry" />
        </mxCell>
        <mxCell id="0hOv-4cGE1IFnxYp0O-4-35" style="edgeStyle=orthogonalEdgeStyle;rounded=0;orthogonalLoop=1;jettySize=auto;html=1;entryX=0.5;entryY=0;entryDx=0;entryDy=0;endArrow=ERzeroToMany;endFill=0;" parent="1" source="0hOv-4cGE1IFnxYp0O-4-33" target="0hOv-4cGE1IFnxYp0O-4-29" edge="1">
          <mxGeometry relative="1" as="geometry" />
        </mxCell>
        <mxCell id="0hOv-4cGE1IFnxYp0O-4-36" style="edgeStyle=orthogonalEdgeStyle;rounded=0;orthogonalLoop=1;jettySize=auto;html=1;entryX=0;entryY=0.5;entryDx=0;entryDy=0;endArrow=ERzeroToMany;endFill=0;" parent="1" source="0hOv-4cGE1IFnxYp0O-4-33" target="Zpv9UvLriDffYdWMjb3y-21" edge="1">
          <mxGeometry relative="1" as="geometry">
            <Array as="points">
              <mxPoint x="-70" y="-40" />
            </Array>
          </mxGeometry>
        </mxCell>
        <mxCell id="0hOv-4cGE1IFnxYp0O-4-33" value="Have" style="shape=rhombus;perimeter=rhombusPerimeter;whiteSpace=wrap;html=1;align=center;" parent="1" vertex="1">
          <mxGeometry x="-130" y="-30" width="120" height="60" as="geometry" />
        </mxCell>
        <mxCell id="H2kWALHUpQaHUIlN6z7A-1" value="Create" style="shape=rhombus;perimeter=rhombusPerimeter;whiteSpace=wrap;html=1;align=center;" parent="1" vertex="1">
          <mxGeometry x="190" y="290" width="120" height="60" as="geometry" />
        </mxCell>
        <mxCell id="0hOv-4cGE1IFnxYp0O-4-39" value="Selected" style="shape=rhombus;perimeter=rhombusPerimeter;whiteSpace=wrap;html=1;align=center;" parent="1" vertex="1">
          <mxGeometry x="570" y="207" width="120" height="60" as="geometry" />
        </mxCell>
        <mxCell id="0hOv-4cGE1IFnxYp0O-4-41" value="Selected" style="shape=rhombus;perimeter=rhombusPerimeter;whiteSpace=wrap;html=1;align=center;" parent="1" vertex="1">
          <mxGeometry x="450" y="120" width="120" height="60" as="geometry" />
        </mxCell>
        <mxCell id="0hOv-4cGE1IFnxYp0O-4-43" style="edgeStyle=orthogonalEdgeStyle;rounded=0;orthogonalLoop=1;jettySize=auto;html=1;entryX=0;entryY=0.75;entryDx=0;entryDy=0;endArrow=ERzeroToMany;endFill=0;" parent="1" source="0hOv-4cGE1IFnxYp0O-4-42" target="32Z3iKF3l3qFzu09CNa0-57" edge="1">
          <mxGeometry relative="1" as="geometry">
            <Array as="points">
              <mxPoint x="-430" y="818" />
              <mxPoint x="-150" y="818" />
              <mxPoint x="-150" y="908" />
            </Array>
          </mxGeometry>
        </mxCell>
        <mxCell id="0hOv-4cGE1IFnxYp0O-4-45" style="edgeStyle=orthogonalEdgeStyle;rounded=0;orthogonalLoop=1;jettySize=auto;html=1;exitX=0;exitY=0.5;exitDx=0;exitDy=0;entryX=1;entryY=0.5;entryDx=0;entryDy=0;endArrow=ERzeroToMany;endFill=0;" parent="1" source="0hOv-4cGE1IFnxYp0O-4-42" target="0hOv-4cGE1IFnxYp0O-4-44" edge="1">
          <mxGeometry relative="1" as="geometry" />
        </mxCell>
        <mxCell id="0hOv-4cGE1IFnxYp0O-4-44" value="Food Type" style="whiteSpace=wrap;html=1;align=center;" parent="1" vertex="1">
          <mxGeometry x="-633" y="755.5" width="100" height="40" as="geometry" />
        </mxCell>
        <mxCell id="0hOv-4cGE1IFnxYp0O-4-55" style="edgeStyle=orthogonalEdgeStyle;rounded=0;orthogonalLoop=1;jettySize=auto;html=1;endArrow=ERzeroToMany;endFill=0;entryX=0.47;entryY=1.043;entryDx=0;entryDy=0;entryPerimeter=0;" parent="1" source="0hOv-4cGE1IFnxYp0O-4-57" target="32Z3iKF3l3qFzu09CNa0-7" edge="1">
          <mxGeometry relative="1" as="geometry">
            <mxPoint x="465" y="630" as="targetPoint" />
            <Array as="points">
              <mxPoint x="210" y="1130" />
              <mxPoint x="441" y="1130" />
            </Array>
          </mxGeometry>
        </mxCell>
        <mxCell id="0hOv-4cGE1IFnxYp0O-4-56" style="edgeStyle=orthogonalEdgeStyle;rounded=0;orthogonalLoop=1;jettySize=auto;html=1;endArrow=ERzeroToMany;endFill=0;entryX=1;entryY=0.5;entryDx=0;entryDy=0;exitX=0;exitY=0.5;exitDx=0;exitDy=0;" parent="1" source="0hOv-4cGE1IFnxYp0O-4-57" target="32Z3iKF3l3qFzu09CNa0-61" edge="1">
          <mxGeometry relative="1" as="geometry">
            <mxPoint x="-50" y="1146.5" as="targetPoint" />
            <Array as="points">
              <mxPoint x="80" y="1166.5" />
              <mxPoint x="80" y="987.5" />
            </Array>
          </mxGeometry>
        </mxCell>
        <mxCell id="0hOv-4cGE1IFnxYp0O-4-57" value="Supplements Log" style="shape=associativeEntity;whiteSpace=wrap;html=1;align=center;" parent="1" vertex="1">
          <mxGeometry x="140" y="1136.5" width="140" height="60" as="geometry" />
        </mxCell>
        <mxCell id="0hOv-4cGE1IFnxYp0O-4-61" style="edgeStyle=orthogonalEdgeStyle;rounded=0;orthogonalLoop=1;jettySize=auto;html=1;endArrow=ERzeroToMany;endFill=0;entryX=0.534;entryY=1.037;entryDx=0;entryDy=0;entryPerimeter=0;" parent="1" source="0hOv-4cGE1IFnxYp0O-4-63" target="32Z3iKF3l3qFzu09CNa0-7" edge="1">
          <mxGeometry relative="1" as="geometry">
            <mxPoint x="460" y="630" as="targetPoint" />
            <Array as="points">
              <mxPoint x="210" y="1210" />
              <mxPoint x="460" y="1210" />
            </Array>
          </mxGeometry>
        </mxCell>
        <mxCell id="0hOv-4cGE1IFnxYp0O-4-62" style="edgeStyle=orthogonalEdgeStyle;rounded=0;orthogonalLoop=1;jettySize=auto;html=1;endArrow=ERzeroToMany;endFill=0;exitX=0;exitY=0.5;exitDx=0;exitDy=0;entryX=1;entryY=0.5;entryDx=0;entryDy=0;" parent="1" source="0hOv-4cGE1IFnxYp0O-4-63" target="32Z3iKF3l3qFzu09CNa0-62" edge="1">
          <mxGeometry relative="1" as="geometry">
            <mxPoint x="30" y="1098.5" as="targetPoint" />
            <Array as="points">
              <mxPoint x="60" y="1238.5" />
              <mxPoint x="60" y="1056.5" />
              <mxPoint x="4" y="1056.5" />
            </Array>
          </mxGeometry>
        </mxCell>
        <mxCell id="0hOv-4cGE1IFnxYp0O-4-63" value="Medication Log" style="shape=associativeEntity;whiteSpace=wrap;html=1;align=center;" parent="1" vertex="1">
          <mxGeometry x="140" y="1216.5" width="140" height="60" as="geometry" />
        </mxCell>
        <mxCell id="Zpv9UvLriDffYdWMjb3y-3" value="Measurement System" style="whiteSpace=wrap;html=1;align=center;" parent="1" vertex="1">
          <mxGeometry x="820" y="649" width="100" height="40" as="geometry" />
        </mxCell>
        <mxCell id="9misM1SqA0BYNmYFmZ5R-135" style="edgeStyle=orthogonalEdgeStyle;rounded=0;orthogonalLoop=1;jettySize=auto;html=1;entryX=0;entryY=0.5;entryDx=0;entryDy=0;endArrow=ERmandOne;endFill=0;" edge="1" parent="1" source="0hOv-4cGE1IFnxYp0O-4-40" target="Zpv9UvLriDffYdWMjb3y-3">
          <mxGeometry relative="1" as="geometry" />
        </mxCell>
        <mxCell id="9misM1SqA0BYNmYFmZ5R-136" style="edgeStyle=orthogonalEdgeStyle;rounded=0;orthogonalLoop=1;jettySize=auto;html=1;entryX=1;entryY=0.75;entryDx=0;entryDy=0;endArrow=ERzeroToMany;endFill=0;" edge="1" parent="1" source="0hOv-4cGE1IFnxYp0O-4-40" target="32Z3iKF3l3qFzu09CNa0-7">
          <mxGeometry relative="1" as="geometry">
            <Array as="points">
              <mxPoint x="640" y="660" />
              <mxPoint x="640" y="553" />
            </Array>
          </mxGeometry>
        </mxCell>
        <mxCell id="0hOv-4cGE1IFnxYp0O-4-40" value="Selected" style="shape=rhombus;perimeter=rhombusPerimeter;whiteSpace=wrap;html=1;align=center;" parent="1" vertex="1">
          <mxGeometry x="650" y="630" width="120" height="60" as="geometry" />
        </mxCell>
        <mxCell id="0hOv-4cGE1IFnxYp0O-4-64" value="Measurements" style="shape=ext;margin=3;double=1;whiteSpace=wrap;html=1;align=center;" parent="1" vertex="1">
          <mxGeometry x="820" y="574.5" width="100" height="40" as="geometry" />
        </mxCell>
        <mxCell id="0hOv-4cGE1IFnxYp0O-4-65" style="edgeStyle=orthogonalEdgeStyle;rounded=0;orthogonalLoop=1;jettySize=auto;html=1;entryX=0.999;entryY=0.646;entryDx=0;entryDy=0;endArrow=ERmandOne;endFill=0;exitX=0;exitY=0.5;exitDx=0;exitDy=0;entryPerimeter=0;" parent="1" source="0hOv-4cGE1IFnxYp0O-4-67" target="32Z3iKF3l3qFzu09CNa0-7" edge="1">
          <mxGeometry relative="1" as="geometry">
            <mxPoint x="1185" y="560" as="targetPoint" />
            <mxPoint x="1160" y="654" as="sourcePoint" />
            <Array as="points">
              <mxPoint x="650" y="540" />
              <mxPoint x="630" y="540" />
              <mxPoint x="630" y="541" />
            </Array>
          </mxGeometry>
        </mxCell>
        <mxCell id="0hOv-4cGE1IFnxYp0O-4-66" style="edgeStyle=orthogonalEdgeStyle;rounded=0;orthogonalLoop=1;jettySize=auto;html=1;exitX=1;exitY=0.5;exitDx=0;exitDy=0;endArrow=ERoneToMany;endFill=0;" parent="1" source="0hOv-4cGE1IFnxYp0O-4-67" target="0hOv-4cGE1IFnxYp0O-4-64" edge="1">
          <mxGeometry relative="1" as="geometry" />
        </mxCell>
        <mxCell id="0hOv-4cGE1IFnxYp0O-4-67" value="Save" style="shape=rhombus;perimeter=rhombusPerimeter;whiteSpace=wrap;html=1;align=center;" parent="1" vertex="1">
          <mxGeometry x="650" y="564.5" width="120" height="60" as="geometry" />
        </mxCell>
        <mxCell id="32Z3iKF3l3qFzu09CNa0-25" value="Have" style="shape=rhombus;perimeter=rhombusPerimeter;whiteSpace=wrap;html=1;align=center;" parent="1" vertex="1">
          <mxGeometry x="650" y="500" width="120" height="60" as="geometry" />
        </mxCell>
        <mxCell id="0hOv-4cGE1IFnxYp0O-4-69" style="edgeStyle=orthogonalEdgeStyle;rounded=0;orthogonalLoop=1;jettySize=auto;html=1;entryX=0.75;entryY=0;entryDx=0;entryDy=0;endArrow=ERzeroToMany;endFill=0;" parent="1" source="0hOv-4cGE1IFnxYp0O-4-68" target="Ubex0Ra7HCPxJ83cHDF8-13" edge="1">
          <mxGeometry relative="1" as="geometry">
            <Array as="points">
              <mxPoint x="-20" y="695.5" />
              <mxPoint x="-20" y="748.5" />
              <mxPoint x="-21" y="748.5" />
            </Array>
          </mxGeometry>
        </mxCell>
        <mxCell id="0hOv-4cGE1IFnxYp0O-4-70" style="edgeStyle=orthogonalEdgeStyle;rounded=0;orthogonalLoop=1;jettySize=auto;html=1;entryX=0;entryY=0.75;entryDx=0;entryDy=0;endArrow=ERzeroToMany;endFill=0;exitX=1;exitY=0.5;exitDx=0;exitDy=0;" parent="1" source="0hOv-4cGE1IFnxYp0O-4-68" target="32Z3iKF3l3qFzu09CNa0-7" edge="1">
          <mxGeometry relative="1" as="geometry">
            <mxPoint x="190" y="630" as="sourcePoint" />
            <Array as="points">
              <mxPoint x="280" y="627" />
              <mxPoint x="280" y="552" />
            </Array>
          </mxGeometry>
        </mxCell>
        <mxCell id="0hOv-4cGE1IFnxYp0O-4-68" value="Recipe Log" style="shape=associativeEntity;whiteSpace=wrap;html=1;align=center;" parent="1" vertex="1">
          <mxGeometry y="665.5" width="140" height="60" as="geometry" />
        </mxCell>
        <mxCell id="0hOv-4cGE1IFnxYp0O-4-72" style="edgeStyle=orthogonalEdgeStyle;rounded=0;orthogonalLoop=1;jettySize=auto;html=1;endArrow=ERmandOne;endFill=0;entryX=0.25;entryY=1;entryDx=0;entryDy=0;exitX=1;exitY=0.5;exitDx=0;exitDy=0;" parent="1" source="0hOv-4cGE1IFnxYp0O-4-71" target="Ubex0Ra7HCPxJ83cHDF8-13" edge="1">
          <mxGeometry relative="1" as="geometry">
            <mxPoint x="-110" y="796.5" as="targetPoint" />
            <Array as="points">
              <mxPoint x="-379" y="950" />
              <mxPoint x="-130" y="950" />
              <mxPoint x="-130" y="809" />
              <mxPoint x="-71" y="809" />
            </Array>
          </mxGeometry>
        </mxCell>
        <mxCell id="0hOv-4cGE1IFnxYp0O-4-73" style="edgeStyle=orthogonalEdgeStyle;rounded=0;orthogonalLoop=1;jettySize=auto;html=1;entryX=1;entryY=0.5;entryDx=0;entryDy=0;exitX=0;exitY=0.5;exitDx=0;exitDy=0;endArrow=ERzeroToOne;endFill=0;" parent="1" source="0hOv-4cGE1IFnxYp0O-4-71" target="Ubex0Ra7HCPxJ83cHDF8-100" edge="1">
          <mxGeometry relative="1" as="geometry">
            <Array as="points">
              <mxPoint x="-449" y="953.5" />
              <mxPoint x="-449" y="903.5" />
            </Array>
          </mxGeometry>
        </mxCell>
        <mxCell id="0hOv-4cGE1IFnxYp0O-4-71" value="Recipe Information" style="shape=associativeEntity;whiteSpace=wrap;html=1;align=center;" parent="1" vertex="1">
          <mxGeometry x="-519" y="922.5" width="140" height="60" as="geometry" />
        </mxCell>
        <mxCell id="0hOv-4cGE1IFnxYp0O-4-75" style="edgeStyle=orthogonalEdgeStyle;rounded=0;orthogonalLoop=1;jettySize=auto;html=1;endArrow=ERmandOne;endFill=0;entryX=0.25;entryY=1;entryDx=0;entryDy=0;" parent="1" source="0hOv-4cGE1IFnxYp0O-4-77" target="32Z3iKF3l3qFzu09CNa0-57" edge="1">
          <mxGeometry relative="1" as="geometry">
            <mxPoint x="-130" y="946.5" as="targetPoint" />
            <Array as="points">
              <mxPoint x="-140" y="1014" />
              <mxPoint x="-140" y="958" />
              <mxPoint x="-71" y="958" />
            </Array>
          </mxGeometry>
        </mxCell>
        <mxCell id="0hOv-4cGE1IFnxYp0O-4-76" style="edgeStyle=orthogonalEdgeStyle;rounded=0;orthogonalLoop=1;jettySize=auto;html=1;entryX=1;entryY=1;entryDx=0;entryDy=0;exitX=0;exitY=0.5;exitDx=0;exitDy=0;endArrow=ERzeroToOne;endFill=0;" parent="1" source="0hOv-4cGE1IFnxYp0O-4-77" target="Ubex0Ra7HCPxJ83cHDF8-100" edge="1">
          <mxGeometry relative="1" as="geometry">
            <mxPoint x="-589" y="1073.75" as="targetPoint" />
            <Array as="points">
              <mxPoint x="-535" y="1019.5" />
            </Array>
          </mxGeometry>
        </mxCell>
        <mxCell id="0hOv-4cGE1IFnxYp0O-4-77" value="Food Information" style="shape=associativeEntity;whiteSpace=wrap;html=1;align=center;" parent="1" vertex="1">
          <mxGeometry x="-519.25" y="994" width="140" height="55.5" as="geometry" />
        </mxCell>
        <mxCell id="0hOv-4cGE1IFnxYp0O-4-78" style="edgeStyle=orthogonalEdgeStyle;rounded=0;orthogonalLoop=1;jettySize=auto;html=1;entryX=0.25;entryY=1;entryDx=0;entryDy=0;endArrow=ERmandOne;endFill=0;" parent="1" source="0hOv-4cGE1IFnxYp0O-4-80" target="32Z3iKF3l3qFzu09CNa0-61" edge="1">
          <mxGeometry relative="1" as="geometry">
            <mxPoint x="-96.25" y="990.5" as="targetPoint" />
            <Array as="points">
              <mxPoint x="-110" y="1087" />
              <mxPoint x="-110" y="1027" />
              <mxPoint x="-71" y="1027" />
            </Array>
          </mxGeometry>
        </mxCell>
        <mxCell id="0hOv-4cGE1IFnxYp0O-4-79" style="edgeStyle=orthogonalEdgeStyle;rounded=0;orthogonalLoop=1;jettySize=auto;html=1;exitX=0;exitY=0.5;exitDx=0;exitDy=0;endArrow=ERzeroToOne;endFill=0;" parent="1" edge="1">
          <mxGeometry relative="1" as="geometry">
            <mxPoint x="-559.75" y="924" as="targetPoint" />
            <Array as="points">
              <mxPoint x="-559.75" y="1086.5" />
            </Array>
            <mxPoint x="-518.9999999999999" y="1086.5" as="sourcePoint" />
          </mxGeometry>
        </mxCell>
        <mxCell id="0hOv-4cGE1IFnxYp0O-4-80" value="Supplements Information" style="shape=associativeEntity;whiteSpace=wrap;html=1;align=center;" parent="1" vertex="1">
          <mxGeometry x="-519.25" y="1062.5" width="140" height="60" as="geometry" />
        </mxCell>
        <mxCell id="0hOv-4cGE1IFnxYp0O-4-81" style="edgeStyle=orthogonalEdgeStyle;rounded=0;orthogonalLoop=1;jettySize=auto;html=1;entryX=0.25;entryY=1;entryDx=0;entryDy=0;endArrow=ERmandOne;endFill=0;" parent="1" source="0hOv-4cGE1IFnxYp0O-4-83" target="32Z3iKF3l3qFzu09CNa0-62" edge="1">
          <mxGeometry relative="1" as="geometry">
            <mxPoint x="-96.25" y="1116.5" as="targetPoint" />
            <Array as="points">
              <mxPoint x="-71" y="1156.5" />
            </Array>
          </mxGeometry>
        </mxCell>
        <mxCell id="0hOv-4cGE1IFnxYp0O-4-82" style="edgeStyle=orthogonalEdgeStyle;rounded=0;orthogonalLoop=1;jettySize=auto;html=1;entryX=0.5;entryY=1;entryDx=0;entryDy=0;exitX=0;exitY=0.5;exitDx=0;exitDy=0;endArrow=ERzeroToOne;endFill=0;" parent="1" source="0hOv-4cGE1IFnxYp0O-4-83" target="Ubex0Ra7HCPxJ83cHDF8-100" edge="1">
          <mxGeometry relative="1" as="geometry">
            <mxPoint x="-535.25" y="1122.5" as="targetPoint" />
            <Array as="points">
              <mxPoint x="-585" y="1162.5" />
            </Array>
          </mxGeometry>
        </mxCell>
        <mxCell id="0hOv-4cGE1IFnxYp0O-4-83" value="Medication Information" style="shape=associativeEntity;whiteSpace=wrap;html=1;align=center;" parent="1" vertex="1">
          <mxGeometry x="-519.25" y="1132.5" width="140" height="60" as="geometry" />
        </mxCell>
        <mxCell id="0hOv-4cGE1IFnxYp0O-4-88" style="edgeStyle=orthogonalEdgeStyle;rounded=0;orthogonalLoop=1;jettySize=auto;html=1;endArrow=ERzeroToMany;endFill=0;" parent="1" source="0hOv-4cGE1IFnxYp0O-4-87" target="0hOv-4cGE1IFnxYp0O-4-4" edge="1">
          <mxGeometry relative="1" as="geometry">
            <Array as="points">
              <mxPoint x="-450" y="630" />
              <mxPoint x="-450" y="630" />
            </Array>
          </mxGeometry>
        </mxCell>
        <mxCell id="0hOv-4cGE1IFnxYp0O-4-89" style="edgeStyle=orthogonalEdgeStyle;rounded=0;orthogonalLoop=1;jettySize=auto;html=1;endArrow=ERzeroToMany;endFill=0;exitX=-0.033;exitY=0.369;exitDx=0;exitDy=0;exitPerimeter=0;" parent="1" edge="1">
          <mxGeometry relative="1" as="geometry">
            <Array as="points">
              <mxPoint x="-522" y="460" />
              <mxPoint x="-645" y="460" />
            </Array>
            <mxPoint x="-521.6200000000001" y="462.1399999999999" as="sourcePoint" />
            <mxPoint x="-645" y="380" as="targetPoint" />
          </mxGeometry>
        </mxCell>
        <mxCell id="0hOv-4cGE1IFnxYp0O-4-87" value="Meal Plan Categories" style="shape=associativeEntity;whiteSpace=wrap;html=1;align=center;" parent="1" vertex="1">
          <mxGeometry x="-520" y="440" width="140" height="60" as="geometry" />
        </mxCell>
        <mxCell id="0hOv-4cGE1IFnxYp0O-4-90" value="Exercises in Exercise Plans" style="shape=associativeEntity;whiteSpace=wrap;html=1;align=center;" parent="1" vertex="1">
          <mxGeometry x="1065" y="966.5" width="145" height="60" as="geometry" />
        </mxCell>
        <mxCell id="0hOv-4cGE1IFnxYp0O-4-91" value="Joined Groups" style="shape=associativeEntity;whiteSpace=wrap;html=1;align=center;" parent="1" vertex="1">
          <mxGeometry x="1160" y="520" width="140" height="60" as="geometry" />
        </mxCell>
        <mxCell id="0hOv-4cGE1IFnxYp0O-4-93" style="edgeStyle=orthogonalEdgeStyle;rounded=0;orthogonalLoop=1;jettySize=auto;html=1;entryX=0;entryY=0.5;entryDx=0;entryDy=0;endArrow=none;endFill=0;exitX=1;exitY=0.5;exitDx=0;exitDy=0;" parent="1" edge="1" target="lQ856VbMLnPR7FZK5Fr0-1" source="0hOv-4cGE1IFnxYp0O-4-92">
          <mxGeometry relative="1" as="geometry">
            <mxPoint x="-81.83770817240702" y="255" as="sourcePoint" />
            <mxPoint x="-0.25" y="315" as="targetPoint" />
            <Array as="points">
              <mxPoint x="-80.25" y="315" />
              <mxPoint x="-10.25" y="315" />
            </Array>
          </mxGeometry>
        </mxCell>
        <mxCell id="0hOv-4cGE1IFnxYp0O-4-92" value="user_id" style="ellipse;whiteSpace=wrap;html=1;align=center;fontStyle=4;" parent="1" vertex="1">
          <mxGeometry x="-130" y="296" width="100" height="40" as="geometry" />
        </mxCell>
        <mxCell id="0hOv-4cGE1IFnxYp0O-4-97" style="edgeStyle=orthogonalEdgeStyle;rounded=0;orthogonalLoop=1;jettySize=auto;html=1;entryX=1;entryY=0;entryDx=0;entryDy=0;" parent="1" source="0hOv-4cGE1IFnxYp0O-4-96" target="lQ856VbMLnPR7FZK5Fr0-2" edge="1">
          <mxGeometry relative="1" as="geometry">
            <Array as="points">
              <mxPoint x="490" y="200" />
            </Array>
          </mxGeometry>
        </mxCell>
        <mxCell id="0hOv-4cGE1IFnxYp0O-4-96" value="account_id" style="ellipse;whiteSpace=wrap;html=1;align=center;fontStyle=4;" parent="1" vertex="1">
          <mxGeometry x="650" y="130" width="100" height="40" as="geometry" />
        </mxCell>
        <mxCell id="0hOv-4cGE1IFnxYp0O-4-103" style="edgeStyle=orthogonalEdgeStyle;rounded=0;orthogonalLoop=1;jettySize=auto;html=1;endArrow=none;endFill=0;" parent="1" source="0hOv-4cGE1IFnxYp0O-4-102" edge="1">
          <mxGeometry relative="1" as="geometry">
            <mxPoint x="700" y="200" as="targetPoint" />
            <Array as="points">
              <mxPoint x="810" y="200" />
            </Array>
          </mxGeometry>
        </mxCell>
        <mxCell id="0hOv-4cGE1IFnxYp0O-4-102" value="username" style="ellipse;whiteSpace=wrap;html=1;align=center;fontStyle=4;" parent="1" vertex="1">
          <mxGeometry x="760" y="130" width="100" height="40" as="geometry" />
        </mxCell>
        <mxCell id="0hOv-4cGE1IFnxYp0O-4-106" style="edgeStyle=orthogonalEdgeStyle;rounded=0;orthogonalLoop=1;jettySize=auto;html=1;endArrow=none;endFill=0;" parent="1" source="0hOv-4cGE1IFnxYp0O-4-104" edge="1">
          <mxGeometry relative="1" as="geometry">
            <mxPoint x="810" y="200" as="targetPoint" />
            <Array as="points">
              <mxPoint x="920" y="200" />
            </Array>
          </mxGeometry>
        </mxCell>
        <mxCell id="0hOv-4cGE1IFnxYp0O-4-104" value="&lt;span style=&quot;border-bottom: 1px dotted&quot;&gt;location_id&lt;/span&gt;" style="ellipse;whiteSpace=wrap;html=1;align=center;" parent="1" vertex="1">
          <mxGeometry x="870" y="130" width="100" height="40" as="geometry" />
        </mxCell>
        <mxCell id="0hOv-4cGE1IFnxYp0O-4-107" style="edgeStyle=orthogonalEdgeStyle;rounded=0;orthogonalLoop=1;jettySize=auto;html=1;endArrow=none;endFill=0;" parent="1" source="0hOv-4cGE1IFnxYp0O-4-105" edge="1">
          <mxGeometry relative="1" as="geometry">
            <mxPoint x="920" y="200" as="targetPoint" />
            <Array as="points">
              <mxPoint x="1030" y="200" />
            </Array>
          </mxGeometry>
        </mxCell>
        <mxCell id="0hOv-4cGE1IFnxYp0O-4-105" value="&lt;span style=&quot;border-bottom: 1px dotted&quot;&gt;time_zone_id&lt;/span&gt;" style="ellipse;whiteSpace=wrap;html=1;align=center;" parent="1" vertex="1">
          <mxGeometry x="980" y="130" width="100" height="40" as="geometry" />
        </mxCell>
        <mxCell id="0hOv-4cGE1IFnxYp0O-4-109" style="edgeStyle=orthogonalEdgeStyle;rounded=0;orthogonalLoop=1;jettySize=auto;html=1;entryX=0;entryY=0.5;entryDx=0;entryDy=0;endArrow=none;endFill=0;exitX=1;exitY=0.5;exitDx=0;exitDy=0;" parent="1" source="0hOv-4cGE1IFnxYp0O-4-108" target="Zpv9UvLriDffYdWMjb3y-1" edge="1">
          <mxGeometry relative="1" as="geometry">
            <mxPoint x="-150" y="540" as="sourcePoint" />
            <Array as="points">
              <mxPoint x="-30" y="540" />
            </Array>
          </mxGeometry>
        </mxCell>
        <mxCell id="0hOv-4cGE1IFnxYp0O-4-108" value="restriction_id" style="ellipse;whiteSpace=wrap;html=1;align=center;fontStyle=4;" parent="1" vertex="1">
          <mxGeometry x="-140" y="550" width="100" height="40" as="geometry" />
        </mxCell>
        <mxCell id="9misM1SqA0BYNmYFmZ5R-73" style="edgeStyle=orthogonalEdgeStyle;rounded=0;orthogonalLoop=1;jettySize=auto;html=1;exitX=0.5;exitY=0;exitDx=0;exitDy=0;entryX=0;entryY=0.5;entryDx=0;entryDy=0;endArrow=none;endFill=0;" edge="1" parent="1" source="0hOv-4cGE1IFnxYp0O-4-84" target="9misM1SqA0BYNmYFmZ5R-71">
          <mxGeometry relative="1" as="geometry" />
        </mxCell>
        <mxCell id="0hOv-4cGE1IFnxYp0O-4-84" value="Recipes in Meal Plans" style="shape=associativeEntity;whiteSpace=wrap;html=1;align=center;" parent="1" vertex="1">
          <mxGeometry x="-320.25" y="570" width="140" height="60" as="geometry" />
        </mxCell>
        <mxCell id="0hOv-4cGE1IFnxYp0O-4-114" style="edgeStyle=orthogonalEdgeStyle;rounded=0;orthogonalLoop=1;jettySize=auto;html=1;endArrow=none;endFill=0;exitX=0.5;exitY=0;exitDx=0;exitDy=0;" parent="1" source="0hOv-4cGE1IFnxYp0O-4-119" edge="1">
          <mxGeometry relative="1" as="geometry">
            <mxPoint x="-110" y="570" as="sourcePoint" />
            <Array as="points">
              <mxPoint x="100" y="620" />
              <mxPoint x="100" y="600" />
              <mxPoint x="110" y="600" />
            </Array>
            <mxPoint x="100" y="600" as="targetPoint" />
          </mxGeometry>
        </mxCell>
        <mxCell id="0hOv-4cGE1IFnxYp0O-4-117" style="edgeStyle=orthogonalEdgeStyle;rounded=0;orthogonalLoop=1;jettySize=auto;html=1;exitX=1;exitY=0.5;exitDx=0;exitDy=0;entryX=0.5;entryY=1;entryDx=0;entryDy=0;endArrow=none;endFill=0;" parent="1" source="0hOv-4cGE1IFnxYp0O-4-111" target="KZsEy8aUsTh1ePcl9788-27" edge="1">
          <mxGeometry relative="1" as="geometry">
            <Array as="points">
              <mxPoint x="180" y="600" />
            </Array>
          </mxGeometry>
        </mxCell>
        <mxCell id="0hOv-4cGE1IFnxYp0O-4-111" value="&lt;span style=&quot;border-bottom: 1px dotted&quot;&gt;account_id&lt;/span&gt;" style="ellipse;whiteSpace=wrap;html=1;align=center;" parent="1" vertex="1">
          <mxGeometry x="-20" y="564" width="100" height="40" as="geometry" />
        </mxCell>
        <mxCell id="0hOv-4cGE1IFnxYp0O-4-119" value="&lt;span style=&quot;border-bottom: 1px dotted&quot;&gt;restriction_id&lt;/span&gt;" style="ellipse;whiteSpace=wrap;html=1;align=center;" parent="1" vertex="1">
          <mxGeometry x="35" y="609" width="100" height="40" as="geometry" />
        </mxCell>
        <mxCell id="0hOv-4cGE1IFnxYp0O-4-121" style="edgeStyle=orthogonalEdgeStyle;rounded=0;orthogonalLoop=1;jettySize=auto;html=1;entryX=1;entryY=0.5;entryDx=0;entryDy=0;endArrow=none;endFill=0;" parent="1" source="0hOv-4cGE1IFnxYp0O-4-120" target="Ubex0Ra7HCPxJ83cHDF8-85" edge="1">
          <mxGeometry relative="1" as="geometry" />
        </mxCell>
        <mxCell id="0hOv-4cGE1IFnxYp0O-4-120" value="time_zone_id" style="ellipse;whiteSpace=wrap;html=1;align=center;fontStyle=4;" parent="1" vertex="1">
          <mxGeometry x="870" y="217" width="100" height="40" as="geometry" />
        </mxCell>
        <mxCell id="0hOv-4cGE1IFnxYp0O-4-123" style="edgeStyle=orthogonalEdgeStyle;rounded=0;orthogonalLoop=1;jettySize=auto;html=1;endArrow=none;endFill=0;" parent="1" source="0hOv-4cGE1IFnxYp0O-4-122" target="Ubex0Ra7HCPxJ83cHDF8-91" edge="1">
          <mxGeometry relative="1" as="geometry" />
        </mxCell>
        <mxCell id="0hOv-4cGE1IFnxYp0O-4-122" value="location_id" style="ellipse;whiteSpace=wrap;html=1;align=center;fontStyle=4;" parent="1" vertex="1">
          <mxGeometry x="610" y="50" width="100" height="40" as="geometry" />
        </mxCell>
        <mxCell id="0hOv-4cGE1IFnxYp0O-4-125" style="edgeStyle=orthogonalEdgeStyle;rounded=0;orthogonalLoop=1;jettySize=auto;html=1;entryX=0.5;entryY=1;entryDx=0;entryDy=0;endArrow=none;endFill=0;" parent="1" source="0hOv-4cGE1IFnxYp0O-4-124" target="Zpv9UvLriDffYdWMjb3y-3" edge="1">
          <mxGeometry relative="1" as="geometry">
            <Array as="points">
              <mxPoint x="930" y="671" />
              <mxPoint x="930" y="689" />
            </Array>
          </mxGeometry>
        </mxCell>
        <mxCell id="0hOv-4cGE1IFnxYp0O-4-124" value="system_id" style="ellipse;whiteSpace=wrap;html=1;align=center;fontStyle=4;" parent="1" vertex="1">
          <mxGeometry x="950" y="649" width="100" height="43" as="geometry" />
        </mxCell>
        <mxCell id="0hOv-4cGE1IFnxYp0O-4-127" value="measurements_id" style="ellipse;whiteSpace=wrap;html=1;align=center;fontStyle=4;" parent="1" vertex="1">
          <mxGeometry x="1054" y="574" width="100" height="40" as="geometry" />
        </mxCell>
        <mxCell id="0hOv-4cGE1IFnxYp0O-4-129" style="edgeStyle=orthogonalEdgeStyle;rounded=0;orthogonalLoop=1;jettySize=auto;html=1;exitX=1;exitY=0.5;exitDx=0;exitDy=0;entryX=0;entryY=0.5;entryDx=0;entryDy=0;endArrow=none;endFill=0;" parent="1" source="0hOv-4cGE1IFnxYp0O-4-130" target="32Z3iKF3l3qFzu09CNa0-17" edge="1">
          <mxGeometry relative="1" as="geometry">
            <mxPoint x="-50" y="450" as="targetPoint" />
            <Array as="points">
              <mxPoint y="454" />
            </Array>
          </mxGeometry>
        </mxCell>
        <mxCell id="0hOv-4cGE1IFnxYp0O-4-130" value="&lt;span style=&quot;border-bottom: 1px dotted&quot;&gt;account_id&lt;/span&gt;" style="ellipse;whiteSpace=wrap;html=1;align=center;" parent="1" vertex="1">
          <mxGeometry x="-194" y="434" width="100" height="40" as="geometry" />
        </mxCell>
        <mxCell id="0hOv-4cGE1IFnxYp0O-4-132" style="edgeStyle=orthogonalEdgeStyle;rounded=0;orthogonalLoop=1;jettySize=auto;html=1;endArrow=none;endFill=0;entryX=1;entryY=0.5;entryDx=0;entryDy=0;exitX=0;exitY=0.5;exitDx=0;exitDy=0;" parent="1" source="0hOv-4cGE1IFnxYp0O-4-127" target="0hOv-4cGE1IFnxYp0O-4-64" edge="1">
          <mxGeometry relative="1" as="geometry">
            <mxPoint x="895" y="625.5" as="targetPoint" />
            <Array as="points">
              <mxPoint x="1054" y="626" />
              <mxPoint x="930" y="626" />
              <mxPoint x="930" y="595" />
            </Array>
          </mxGeometry>
        </mxCell>
        <mxCell id="9misM1SqA0BYNmYFmZ5R-134" style="edgeStyle=orthogonalEdgeStyle;rounded=0;orthogonalLoop=1;jettySize=auto;html=1;exitX=0;exitY=0.5;exitDx=0;exitDy=0;endArrow=none;endFill=0;" edge="1" parent="1" source="0hOv-4cGE1IFnxYp0O-4-131">
          <mxGeometry relative="1" as="geometry">
            <mxPoint x="920" y="594.1999999999998" as="targetPoint" />
          </mxGeometry>
        </mxCell>
        <mxCell id="0hOv-4cGE1IFnxYp0O-4-131" value="&lt;span style=&quot;border-bottom: 1px dotted&quot;&gt;account_id&lt;/span&gt;" style="ellipse;whiteSpace=wrap;html=1;align=center;" parent="1" vertex="1">
          <mxGeometry x="940" y="574.5" width="100" height="40" as="geometry" />
        </mxCell>
        <mxCell id="0hOv-4cGE1IFnxYp0O-4-135" style="edgeStyle=orthogonalEdgeStyle;rounded=0;orthogonalLoop=1;jettySize=auto;html=1;entryX=0.5;entryY=1;entryDx=0;entryDy=0;endArrow=none;endFill=0;" parent="1" source="0hOv-4cGE1IFnxYp0O-4-134" target="32Z3iKF3l3qFzu09CNa0-17" edge="1">
          <mxGeometry relative="1" as="geometry">
            <Array as="points">
              <mxPoint x="20" y="490" />
            </Array>
          </mxGeometry>
        </mxCell>
        <mxCell id="0hOv-4cGE1IFnxYp0O-4-134" value="long_term_id" style="ellipse;whiteSpace=wrap;html=1;align=center;fontStyle=4;" parent="1" vertex="1">
          <mxGeometry x="-120" y="470" width="100" height="40" as="geometry" />
        </mxCell>
        <mxCell id="0hOv-4cGE1IFnxYp0O-4-140" style="edgeStyle=orthogonalEdgeStyle;rounded=0;orthogonalLoop=1;jettySize=auto;html=1;entryX=1;entryY=0.5;entryDx=0;entryDy=0;endArrow=none;endFill=0;exitX=0;exitY=0.5;exitDx=0;exitDy=0;" parent="1" source="0hOv-4cGE1IFnxYp0O-4-138" target="32Z3iKF3l3qFzu09CNa0-26" edge="1">
          <mxGeometry relative="1" as="geometry">
            <Array as="points">
              <mxPoint x="1000" y="535" />
              <mxPoint x="1000" y="535" />
            </Array>
          </mxGeometry>
        </mxCell>
        <mxCell id="0hOv-4cGE1IFnxYp0O-4-137" value="nut_goal_id" style="ellipse;whiteSpace=wrap;html=1;align=center;fontStyle=4;" parent="1" vertex="1">
          <mxGeometry x="940" y="515" width="100" height="40" as="geometry" />
        </mxCell>
        <mxCell id="0hOv-4cGE1IFnxYp0O-4-138" value="&lt;span style=&quot;border-bottom: 1px dotted&quot;&gt;account_id&lt;/span&gt;" style="ellipse;whiteSpace=wrap;html=1;align=center;" parent="1" vertex="1">
          <mxGeometry x="1055" y="515" width="100" height="40" as="geometry" />
        </mxCell>
        <mxCell id="0hOv-4cGE1IFnxYp0O-4-143" style="edgeStyle=orthogonalEdgeStyle;rounded=0;orthogonalLoop=1;jettySize=auto;html=1;exitX=0;exitY=0.5;exitDx=0;exitDy=0;entryX=0.5;entryY=0;entryDx=0;entryDy=0;endArrow=none;endFill=0;" parent="1" source="0hOv-4cGE1IFnxYp0O-4-141" target="32Z3iKF3l3qFzu09CNa0-32" edge="1">
          <mxGeometry relative="1" as="geometry">
            <Array as="points">
              <mxPoint x="970" y="360" />
            </Array>
          </mxGeometry>
        </mxCell>
        <mxCell id="0hOv-4cGE1IFnxYp0O-4-141" value="weight_id" style="ellipse;whiteSpace=wrap;html=1;align=center;fontStyle=4;" parent="1" vertex="1">
          <mxGeometry x="1160" y="340" width="100" height="40" as="geometry" />
        </mxCell>
        <mxCell id="0hOv-4cGE1IFnxYp0O-4-142" value="&lt;span style=&quot;border-bottom: 1px dotted&quot;&gt;account_id&lt;/span&gt;" style="ellipse;whiteSpace=wrap;html=1;align=center;" parent="1" vertex="1">
          <mxGeometry x="1040" y="340" width="100" height="40" as="geometry" />
        </mxCell>
        <mxCell id="0hOv-4cGE1IFnxYp0O-4-147" style="edgeStyle=orthogonalEdgeStyle;rounded=0;orthogonalLoop=1;jettySize=auto;html=1;entryX=1;entryY=0.5;entryDx=0;entryDy=0;endArrow=none;endFill=0;exitX=0;exitY=0.5;exitDx=0;exitDy=0;" parent="1" source="0hOv-4cGE1IFnxYp0O-4-145" target="32Z3iKF3l3qFzu09CNa0-36" edge="1">
          <mxGeometry relative="1" as="geometry">
            <Array as="points" />
          </mxGeometry>
        </mxCell>
        <mxCell id="0hOv-4cGE1IFnxYp0O-4-146" value="&lt;span style=&quot;border-bottom: 1px dotted&quot;&gt;account_id&lt;/span&gt;" style="ellipse;whiteSpace=wrap;html=1;align=center;" parent="1" vertex="1">
          <mxGeometry x="1050" y="705.5" width="100" height="40" as="geometry" />
        </mxCell>
        <mxCell id="0hOv-4cGE1IFnxYp0O-4-153" style="edgeStyle=orthogonalEdgeStyle;rounded=0;orthogonalLoop=1;jettySize=auto;html=1;entryX=1;entryY=0.5;entryDx=0;entryDy=0;endArrow=none;endFill=0;" parent="1" source="0hOv-4cGE1IFnxYp0O-4-150" target="32Z3iKF3l3qFzu09CNa0-40" edge="1">
          <mxGeometry relative="1" as="geometry">
            <Array as="points">
              <mxPoint x="1040" y="810.5" />
              <mxPoint x="1040" y="811.5" />
            </Array>
          </mxGeometry>
        </mxCell>
        <mxCell id="0hOv-4cGE1IFnxYp0O-4-150" value="diary_id" style="ellipse;whiteSpace=wrap;html=1;align=center;fontStyle=4;" parent="1" vertex="1">
          <mxGeometry x="930" y="790" width="100" height="40" as="geometry" />
        </mxCell>
        <mxCell id="0hOv-4cGE1IFnxYp0O-4-151" value="&lt;span style=&quot;border-bottom: 1px dotted&quot;&gt;account_id&lt;/span&gt;" style="ellipse;whiteSpace=wrap;html=1;align=center;" parent="1" vertex="1">
          <mxGeometry x="1040" y="787.5" width="100" height="40" as="geometry" />
        </mxCell>
        <mxCell id="0hOv-4cGE1IFnxYp0O-4-159" style="edgeStyle=orthogonalEdgeStyle;rounded=0;orthogonalLoop=1;jettySize=auto;html=1;exitX=1;exitY=0.5;exitDx=0;exitDy=0;entryX=0;entryY=0.75;entryDx=0;entryDy=0;endArrow=none;endFill=0;" parent="1" source="0hOv-4cGE1IFnxYp0O-4-155" target="32Z3iKF3l3qFzu09CNa0-49" edge="1">
          <mxGeometry relative="1" as="geometry" />
        </mxCell>
        <mxCell id="0hOv-4cGE1IFnxYp0O-4-155" value="&lt;span style=&quot;border-bottom: 1px dotted&quot;&gt;account_id&lt;/span&gt;" style="ellipse;whiteSpace=wrap;html=1;align=center;" parent="1" vertex="1">
          <mxGeometry x="-194" y="382" width="100" height="40" as="geometry" />
        </mxCell>
        <mxCell id="0hOv-4cGE1IFnxYp0O-4-157" style="edgeStyle=orthogonalEdgeStyle;rounded=0;orthogonalLoop=1;jettySize=auto;html=1;exitX=0.5;exitY=1;exitDx=0;exitDy=0;entryX=0;entryY=0.75;entryDx=0;entryDy=0;endArrow=none;endFill=0;" parent="1" source="0hOv-4cGE1IFnxYp0O-4-156" target="32Z3iKF3l3qFzu09CNa0-49" edge="1">
          <mxGeometry relative="1" as="geometry" />
        </mxCell>
        <mxCell id="0hOv-4cGE1IFnxYp0O-4-156" value="water_id" style="ellipse;whiteSpace=wrap;html=1;align=center;fontStyle=4;" parent="1" vertex="1">
          <mxGeometry x="-120" y="342" width="100" height="40" as="geometry" />
        </mxCell>
        <mxCell id="0hOv-4cGE1IFnxYp0O-4-162" style="edgeStyle=orthogonalEdgeStyle;rounded=0;orthogonalLoop=1;jettySize=auto;html=1;entryX=0.5;entryY=0;entryDx=0;entryDy=0;endArrow=none;endFill=0;exitX=0;exitY=0.5;exitDx=0;exitDy=0;" parent="1" source="0hOv-4cGE1IFnxYp0O-4-161" target="Ubex0Ra7HCPxJ83cHDF8-59" edge="1">
          <mxGeometry relative="1" as="geometry" />
        </mxCell>
        <mxCell id="0hOv-4cGE1IFnxYp0O-4-160" value="&lt;span style=&quot;border-bottom: 1px dotted&quot;&gt;account_id&lt;/span&gt;" style="ellipse;whiteSpace=wrap;html=1;align=center;" parent="1" vertex="1">
          <mxGeometry x="1040" y="250" width="100" height="40" as="geometry" />
        </mxCell>
        <mxCell id="0hOv-4cGE1IFnxYp0O-4-161" value="tracker_id" style="ellipse;whiteSpace=wrap;html=1;align=center;fontStyle=4;" parent="1" vertex="1">
          <mxGeometry x="1160" y="250" width="100" height="40" as="geometry" />
        </mxCell>
        <mxCell id="0hOv-4cGE1IFnxYp0O-4-167" style="edgeStyle=orthogonalEdgeStyle;rounded=0;orthogonalLoop=1;jettySize=auto;html=1;exitX=0;exitY=0.5;exitDx=0;exitDy=0;entryX=1;entryY=0.5;entryDx=0;entryDy=0;endArrow=none;endFill=0;" parent="1" source="0hOv-4cGE1IFnxYp0O-4-164" target="Ubex0Ra7HCPxJ83cHDF8-64" edge="1">
          <mxGeometry relative="1" as="geometry" />
        </mxCell>
        <mxCell id="0hOv-4cGE1IFnxYp0O-4-164" value="sleep_id" style="ellipse;whiteSpace=wrap;html=1;align=center;fontStyle=4;" parent="1" vertex="1">
          <mxGeometry x="940" y="1101" width="100" height="40" as="geometry" />
        </mxCell>
        <mxCell id="0hOv-4cGE1IFnxYp0O-4-168" style="edgeStyle=orthogonalEdgeStyle;rounded=0;orthogonalLoop=1;jettySize=auto;html=1;exitX=0;exitY=0.5;exitDx=0;exitDy=0;entryX=0.5;entryY=1;entryDx=0;entryDy=0;endArrow=none;endFill=0;" parent="1" source="0hOv-4cGE1IFnxYp0O-4-165" target="Ubex0Ra7HCPxJ83cHDF8-64" edge="1">
          <mxGeometry relative="1" as="geometry" />
        </mxCell>
        <mxCell id="0hOv-4cGE1IFnxYp0O-4-165" value="&lt;span style=&quot;border-bottom: 1px dotted&quot;&gt;account_id&lt;/span&gt;" style="ellipse;whiteSpace=wrap;html=1;align=center;" parent="1" vertex="1">
          <mxGeometry x="900" y="1156.5" width="100" height="40" as="geometry" />
        </mxCell>
        <mxCell id="0hOv-4cGE1IFnxYp0O-4-169" value="&lt;span style=&quot;border-bottom: 1px dotted&quot;&gt;account_id&lt;/span&gt;" style="ellipse;whiteSpace=wrap;html=1;align=center;" parent="1" vertex="1">
          <mxGeometry x="-374" y="896.5" width="100" height="40" as="geometry" />
        </mxCell>
        <mxCell id="0hOv-4cGE1IFnxYp0O-4-178" style="edgeStyle=orthogonalEdgeStyle;rounded=0;orthogonalLoop=1;jettySize=auto;html=1;entryX=0.947;entryY=0.265;entryDx=0;entryDy=0;endArrow=none;endFill=0;entryPerimeter=0;exitX=0.5;exitY=0;exitDx=0;exitDy=0;" parent="1" source="0hOv-4cGE1IFnxYp0O-4-177" edge="1">
          <mxGeometry relative="1" as="geometry">
            <mxPoint x="-9.942499999999654" y="1077.4375" as="targetPoint" />
          </mxGeometry>
        </mxCell>
        <mxCell id="0hOv-4cGE1IFnxYp0O-4-177" value="medication_id" style="ellipse;whiteSpace=wrap;html=1;align=center;fontStyle=4;" parent="1" vertex="1">
          <mxGeometry x="-60" y="1168" width="100" height="40" as="geometry" />
        </mxCell>
        <mxCell id="0hOv-4cGE1IFnxYp0O-4-180" value="&lt;span style=&quot;border-bottom: 1px dotted&quot;&gt;account_id&lt;/span&gt;" style="ellipse;whiteSpace=wrap;html=1;align=center;" parent="1" vertex="1">
          <mxGeometry x="-360" y="1026.5" width="100" height="40" as="geometry" />
        </mxCell>
        <mxCell id="0hOv-4cGE1IFnxYp0O-4-182" style="edgeStyle=orthogonalEdgeStyle;rounded=0;orthogonalLoop=1;jettySize=auto;html=1;entryX=0;entryY=0.75;entryDx=0;entryDy=0;endArrow=none;endFill=0;exitX=1;exitY=0.5;exitDx=0;exitDy=0;" parent="1" source="0hOv-4cGE1IFnxYp0O-4-181" target="32Z3iKF3l3qFzu09CNa0-61" edge="1">
          <mxGeometry relative="1" as="geometry">
            <Array as="points">
              <mxPoint x="-130" y="1043" />
              <mxPoint x="-130" y="997" />
            </Array>
          </mxGeometry>
        </mxCell>
        <mxCell id="0hOv-4cGE1IFnxYp0O-4-186" style="edgeStyle=orthogonalEdgeStyle;rounded=0;orthogonalLoop=1;jettySize=auto;html=1;entryX=0;entryY=0;entryDx=0;entryDy=0;endArrow=none;endFill=0;exitX=1;exitY=0.5;exitDx=0;exitDy=0;" parent="1" source="0hOv-4cGE1IFnxYp0O-4-184" target="Ubex0Ra7HCPxJ83cHDF8-13" edge="1">
          <mxGeometry relative="1" as="geometry">
            <Array as="points">
              <mxPoint x="-160" y="656" />
              <mxPoint x="-96" y="656" />
            </Array>
          </mxGeometry>
        </mxCell>
        <mxCell id="0hOv-4cGE1IFnxYp0O-4-192" style="edgeStyle=orthogonalEdgeStyle;rounded=0;orthogonalLoop=1;jettySize=auto;html=1;endArrow=none;endFill=0;entryX=0.122;entryY=0.013;entryDx=0;entryDy=0;entryPerimeter=0;" parent="1" source="0hOv-4cGE1IFnxYp0O-4-191" target="0hOv-4cGE1IFnxYp0O-4-44" edge="1">
          <mxGeometry relative="1" as="geometry">
            <mxPoint x="-720" y="670" as="targetPoint" />
          </mxGeometry>
        </mxCell>
        <mxCell id="0hOv-4cGE1IFnxYp0O-4-191" value="food_type_id" style="ellipse;whiteSpace=wrap;html=1;align=center;fontStyle=4;" parent="1" vertex="1">
          <mxGeometry x="-670" y="695.5" width="100" height="40" as="geometry" />
        </mxCell>
        <mxCell id="0hOv-4cGE1IFnxYp0O-4-198" style="edgeStyle=orthogonalEdgeStyle;rounded=0;orthogonalLoop=1;jettySize=auto;html=1;endArrow=none;endFill=0;exitX=1;exitY=0.5;exitDx=0;exitDy=0;" parent="1" source="0hOv-4cGE1IFnxYp0O-4-193" edge="1">
          <mxGeometry relative="1" as="geometry">
            <mxPoint x="-560" y="640" as="targetPoint" />
            <Array as="points">
              <mxPoint x="-560" y="585" />
            </Array>
          </mxGeometry>
        </mxCell>
        <mxCell id="0hOv-4cGE1IFnxYp0O-4-193" value="&lt;span style=&quot;border-bottom: 1px dotted&quot;&gt;food_id&lt;/span&gt;" style="ellipse;whiteSpace=wrap;html=1;align=center;" parent="1" vertex="1">
          <mxGeometry x="-670" y="565" width="100" height="40" as="geometry" />
        </mxCell>
        <mxCell id="0hOv-4cGE1IFnxYp0O-4-199" style="edgeStyle=orthogonalEdgeStyle;rounded=0;orthogonalLoop=1;jettySize=auto;html=1;endArrow=none;endFill=0;entryX=0.25;entryY=0;entryDx=0;entryDy=0;" parent="1" source="0hOv-4cGE1IFnxYp0O-4-195" edge="1" target="0hOv-4cGE1IFnxYp0O-4-42">
          <mxGeometry relative="1" as="geometry">
            <mxPoint x="-560" y="730" as="targetPoint" />
            <Array as="points">
              <mxPoint x="-560" y="633" />
              <mxPoint x="-560" y="745" />
            </Array>
          </mxGeometry>
        </mxCell>
        <mxCell id="0hOv-4cGE1IFnxYp0O-4-195" value="&lt;span style=&quot;border-bottom: 1px dotted&quot;&gt;food_type_id&lt;/span&gt;" style="ellipse;whiteSpace=wrap;html=1;align=center;" parent="1" vertex="1">
          <mxGeometry x="-670" y="613" width="100" height="40" as="geometry" />
        </mxCell>
        <mxCell id="0hOv-4cGE1IFnxYp0O-4-42" value="Assigned Food Types" style="shape=associativeEntity;whiteSpace=wrap;html=1;align=center;" parent="1" vertex="1">
          <mxGeometry x="-500" y="745.5" width="140" height="60" as="geometry" />
        </mxCell>
        <mxCell id="0hOv-4cGE1IFnxYp0O-4-200" value="&lt;span style=&quot;border-bottom: 1px dotted&quot;&gt;food_id&lt;/span&gt;" style="ellipse;whiteSpace=wrap;html=1;align=center;" parent="1" vertex="1">
          <mxGeometry x="-364.12" y="833" width="100" height="40" as="geometry" />
        </mxCell>
        <mxCell id="0hOv-4cGE1IFnxYp0O-4-239" style="edgeStyle=orthogonalEdgeStyle;rounded=0;orthogonalLoop=1;jettySize=auto;html=1;entryX=0.5;entryY=0;entryDx=0;entryDy=0;endArrow=none;endFill=0;exitX=0.5;exitY=1;exitDx=0;exitDy=0;" parent="1" source="0hOv-4cGE1IFnxYp0O-4-238" target="Ubex0Ra7HCPxJ83cHDF8-20" edge="1">
          <mxGeometry relative="1" as="geometry">
            <Array as="points">
              <mxPoint x="-600" y="328" />
              <mxPoint x="-600" y="328" />
            </Array>
            <mxPoint x="-710.0000000000002" y="368" as="sourcePoint" />
          </mxGeometry>
        </mxCell>
        <mxCell id="0hOv-4cGE1IFnxYp0O-4-238" value="meal_plan_id" style="ellipse;whiteSpace=wrap;html=1;align=center;fontStyle=4;" parent="1" vertex="1">
          <mxGeometry x="-650" y="288" width="100" height="40" as="geometry" />
        </mxCell>
        <mxCell id="0hOv-4cGE1IFnxYp0O-4-243" style="edgeStyle=orthogonalEdgeStyle;rounded=0;orthogonalLoop=1;jettySize=auto;html=1;entryX=1;entryY=0.5;entryDx=0;entryDy=0;endArrow=none;endFill=0;exitX=0;exitY=0.5;exitDx=0;exitDy=0;" parent="1" source="9misM1SqA0BYNmYFmZ5R-68" target="Ubex0Ra7HCPxJ83cHDF8-21" edge="1">
          <mxGeometry relative="1" as="geometry">
            <mxPoint x="-300.2498999999" y="380.0400000000002" as="sourcePoint" />
          </mxGeometry>
        </mxCell>
        <mxCell id="0hOv-4cGE1IFnxYp0O-4-245" style="edgeStyle=orthogonalEdgeStyle;rounded=0;orthogonalLoop=1;jettySize=auto;html=1;entryX=0.25;entryY=0;entryDx=0;entryDy=0;endArrow=none;endFill=0;" parent="1" source="0hOv-4cGE1IFnxYp0O-4-244" target="0hOv-4cGE1IFnxYp0O-4-4" edge="1">
          <mxGeometry relative="1" as="geometry">
            <Array as="points">
              <mxPoint x="-504" y="676" />
            </Array>
          </mxGeometry>
        </mxCell>
        <mxCell id="0hOv-4cGE1IFnxYp0O-4-244" value="meal_category_id" style="ellipse;whiteSpace=wrap;html=1;align=center;fontStyle=4;" parent="1" vertex="1">
          <mxGeometry x="-554.25" y="626" width="100" height="40" as="geometry" />
        </mxCell>
        <mxCell id="0hOv-4cGE1IFnxYp0O-4-247" style="edgeStyle=orthogonalEdgeStyle;rounded=0;orthogonalLoop=1;jettySize=auto;html=1;entryX=0;entryY=0.75;entryDx=0;entryDy=0;endArrow=none;endFill=0;" parent="1" target="0hOv-4cGE1IFnxYp0O-4-87" edge="1">
          <mxGeometry relative="1" as="geometry">
            <mxPoint x="-554.25" y="485" as="sourcePoint" />
          </mxGeometry>
        </mxCell>
        <mxCell id="0hOv-4cGE1IFnxYp0O-4-251" style="edgeStyle=orthogonalEdgeStyle;rounded=0;orthogonalLoop=1;jettySize=auto;html=1;entryX=0.5;entryY=0;entryDx=0;entryDy=0;endArrow=none;endFill=0;" parent="1" source="0hOv-4cGE1IFnxYp0O-4-250" target="Ubex0Ra7HCPxJ83cHDF8-12" edge="1">
          <mxGeometry relative="1" as="geometry">
            <Array as="points">
              <mxPoint x="870" y="862" />
            </Array>
          </mxGeometry>
        </mxCell>
        <mxCell id="0hOv-4cGE1IFnxYp0O-4-250" value="exercise_id" style="ellipse;whiteSpace=wrap;html=1;align=center;fontStyle=4;" parent="1" vertex="1">
          <mxGeometry x="930" y="842" width="100" height="40" as="geometry" />
        </mxCell>
        <mxCell id="0hOv-4cGE1IFnxYp0O-4-253" style="edgeStyle=orthogonalEdgeStyle;rounded=0;orthogonalLoop=1;jettySize=auto;html=1;entryX=1;entryY=0.5;entryDx=0;entryDy=0;endArrow=none;endFill=0;exitX=0.5;exitY=1;exitDx=0;exitDy=0;" parent="1" source="9misM1SqA0BYNmYFmZ5R-51" target="Zpv9UvLriDffYdWMjb3y-16" edge="1">
          <mxGeometry relative="1" as="geometry">
            <Array as="points">
              <mxPoint x="1280" y="900" />
              <mxPoint x="1216" y="900" />
            </Array>
            <mxPoint x="1226" y="892" as="sourcePoint" />
          </mxGeometry>
        </mxCell>
        <mxCell id="0hOv-4cGE1IFnxYp0O-4-255" style="edgeStyle=orthogonalEdgeStyle;rounded=0;orthogonalLoop=1;jettySize=auto;html=1;entryX=0.5;entryY=1;entryDx=0;entryDy=0;endArrow=none;endFill=0;" parent="1" source="0hOv-4cGE1IFnxYp0O-4-254" target="Ubex0Ra7HCPxJ83cHDF8-27" edge="1">
          <mxGeometry relative="1" as="geometry" />
        </mxCell>
        <mxCell id="0hOv-4cGE1IFnxYp0O-4-254" value="exercise_plan_id" style="ellipse;whiteSpace=wrap;html=1;align=center;fontStyle=4;" parent="1" vertex="1">
          <mxGeometry x="940" y="998" width="100" height="40" as="geometry" />
        </mxCell>
        <mxCell id="0hOv-4cGE1IFnxYp0O-4-263" style="edgeStyle=orthogonalEdgeStyle;rounded=0;orthogonalLoop=1;jettySize=auto;html=1;entryX=0;entryY=0;entryDx=0;entryDy=0;endArrow=none;endFill=0;" parent="1" source="0hOv-4cGE1IFnxYp0O-4-262" target="Zpv9UvLriDffYdWMjb3y-21" edge="1">
          <mxGeometry relative="1" as="geometry" />
        </mxCell>
        <mxCell id="0hOv-4cGE1IFnxYp0O-4-262" value="post_id" style="ellipse;whiteSpace=wrap;html=1;align=center;fontStyle=4;" parent="1" vertex="1">
          <mxGeometry x="-50" y="-120" width="100" height="40" as="geometry" />
        </mxCell>
        <mxCell id="0hOv-4cGE1IFnxYp0O-4-264" value="comment_id" style="ellipse;whiteSpace=wrap;html=1;align=center;fontStyle=4;" parent="1" vertex="1">
          <mxGeometry x="200" y="118" width="100" height="40" as="geometry" />
        </mxCell>
        <mxCell id="0hOv-4cGE1IFnxYp0O-4-265" style="edgeStyle=orthogonalEdgeStyle;rounded=0;orthogonalLoop=1;jettySize=auto;html=1;entryX=0.427;entryY=1.025;entryDx=0;entryDy=0;entryPerimeter=0;endArrow=none;endFill=0;" parent="1" source="0hOv-4cGE1IFnxYp0O-4-264" target="Zpv9UvLriDffYdWMjb3y-22" edge="1">
          <mxGeometry relative="1" as="geometry">
            <Array as="points">
              <mxPoint x="175" y="138" />
              <mxPoint x="175" y="140" />
              <mxPoint x="93" y="140" />
            </Array>
          </mxGeometry>
        </mxCell>
        <mxCell id="0hOv-4cGE1IFnxYp0O-4-267" style="edgeStyle=orthogonalEdgeStyle;rounded=0;orthogonalLoop=1;jettySize=auto;html=1;entryX=0.5;entryY=1;entryDx=0;entryDy=0;endArrow=none;endFill=0;" parent="1" source="0hOv-4cGE1IFnxYp0O-4-266" target="Zpv9UvLriDffYdWMjb3y-60" edge="1">
          <mxGeometry relative="1" as="geometry" />
        </mxCell>
        <mxCell id="0hOv-4cGE1IFnxYp0O-4-266" value="multimedia_id" style="ellipse;whiteSpace=wrap;html=1;align=center;fontStyle=4;" parent="1" vertex="1">
          <mxGeometry x="770" width="100" height="40" as="geometry" />
        </mxCell>
        <mxCell id="0hOv-4cGE1IFnxYp0O-4-271" style="edgeStyle=orthogonalEdgeStyle;rounded=0;orthogonalLoop=1;jettySize=auto;html=1;entryX=0.5;entryY=0;entryDx=0;entryDy=0;endArrow=none;endFill=0;" parent="1" source="0hOv-4cGE1IFnxYp0O-4-270" target="Ubex0Ra7HCPxJ83cHDF8-76" edge="1">
          <mxGeometry relative="1" as="geometry" />
        </mxCell>
        <mxCell id="0hOv-4cGE1IFnxYp0O-4-270" value="food_challenges_id" style="ellipse;whiteSpace=wrap;html=1;align=center;fontStyle=4;" parent="1" vertex="1">
          <mxGeometry x="-560" y="100" width="100" height="40" as="geometry" />
        </mxCell>
        <mxCell id="0hOv-4cGE1IFnxYp0O-4-273" style="edgeStyle=orthogonalEdgeStyle;rounded=0;orthogonalLoop=1;jettySize=auto;html=1;endArrow=none;endFill=0;exitX=0.5;exitY=1;exitDx=0;exitDy=0;" parent="1" source="9misM1SqA0BYNmYFmZ5R-16" target="Ubex0Ra7HCPxJ83cHDF8-77" edge="1">
          <mxGeometry relative="1" as="geometry">
            <mxPoint x="-350.25" y="140" as="sourcePoint" />
          </mxGeometry>
        </mxCell>
        <mxCell id="0hOv-4cGE1IFnxYp0O-4-276" style="edgeStyle=orthogonalEdgeStyle;rounded=0;orthogonalLoop=1;jettySize=auto;html=1;endArrow=none;endFill=0;exitX=0;exitY=0.5;exitDx=0;exitDy=0;" parent="1" source="0hOv-4cGE1IFnxYp0O-4-274" edge="1">
          <mxGeometry relative="1" as="geometry">
            <Array as="points" />
            <mxPoint x="-545" y="280" as="targetPoint" />
          </mxGeometry>
        </mxCell>
        <mxCell id="0hOv-4cGE1IFnxYp0O-4-274" value="exercise_challenge_id&lt;span style=&quot;color: rgb(0, 0, 0); font-size: medium; text-align: start;&quot;&gt;&lt;/span&gt;" style="ellipse;whiteSpace=wrap;html=1;align=center;fontStyle=4;" parent="1" vertex="1">
          <mxGeometry x="-525" y="283" width="100" height="40" as="geometry" />
        </mxCell>
        <mxCell id="0hOv-4cGE1IFnxYp0O-4-278" style="edgeStyle=orthogonalEdgeStyle;rounded=0;orthogonalLoop=1;jettySize=auto;html=1;entryX=1;entryY=0.5;entryDx=0;entryDy=0;endArrow=none;endFill=0;exitX=0;exitY=0.5;exitDx=0;exitDy=0;" parent="1" source="0hOv-4cGE1IFnxYp0O-4-277" target="Ubex0Ra7HCPxJ83cHDF8-83" edge="1">
          <mxGeometry relative="1" as="geometry">
            <Array as="points">
              <mxPoint x="-236" y="316" />
              <mxPoint x="-236" y="258" />
            </Array>
          </mxGeometry>
        </mxCell>
        <mxCell id="0hOv-4cGE1IFnxYp0O-4-277" value="aec_id" style="ellipse;whiteSpace=wrap;html=1;align=center;fontStyle=4;" parent="1" vertex="1">
          <mxGeometry x="-260" y="283" width="100" height="40" as="geometry" />
        </mxCell>
        <mxCell id="0hOv-4cGE1IFnxYp0O-4-279" value="nutrition_id" style="ellipse;whiteSpace=wrap;html=1;align=center;fontStyle=4;" parent="1" vertex="1">
          <mxGeometry x="-670" y="830" width="100" height="40" as="geometry" />
        </mxCell>
        <mxCell id="0hOv-4cGE1IFnxYp0O-4-282" style="edgeStyle=orthogonalEdgeStyle;rounded=0;orthogonalLoop=1;jettySize=auto;html=1;entryX=0;entryY=0.5;entryDx=0;entryDy=0;endArrow=none;endFill=0;" parent="1" source="0hOv-4cGE1IFnxYp0O-4-281" target="0hOv-4cGE1IFnxYp0O-4-29" edge="1">
          <mxGeometry relative="1" as="geometry" />
        </mxCell>
        <mxCell id="0hOv-4cGE1IFnxYp0O-4-281" value="newsfeed_id" style="ellipse;whiteSpace=wrap;html=1;align=center;fontStyle=4;" parent="1" vertex="1">
          <mxGeometry x="-260" y="60" width="100" height="40" as="geometry" />
        </mxCell>
        <mxCell id="0hOv-4cGE1IFnxYp0O-4-184" value="&lt;span style=&quot;border-bottom: 1px dotted&quot;&gt;account_id&lt;/span&gt;" style="ellipse;whiteSpace=wrap;html=1;align=center;" parent="1" vertex="1">
          <mxGeometry x="-227.5" y="635.5" width="100" height="40" as="geometry" />
        </mxCell>
        <mxCell id="4778jP_3WZRPcaVqJOaR-10" value="" style="edgeStyle=orthogonalEdgeStyle;rounded=0;orthogonalLoop=1;jettySize=auto;html=1;exitX=1;exitY=0.5;exitDx=0;exitDy=0;endArrow=none;endFill=0;" parent="1" source="0hOv-4cGE1IFnxYp0O-4-169" edge="1">
          <mxGeometry relative="1" as="geometry">
            <mxPoint x="-90" y="918" as="targetPoint" />
            <Array as="points">
              <mxPoint x="-274" y="940" />
              <mxPoint x="-140" y="940" />
              <mxPoint x="-140" y="919" />
              <mxPoint x="-90" y="919" />
            </Array>
            <mxPoint x="-319" y="890" as="sourcePoint" />
          </mxGeometry>
        </mxCell>
        <mxCell id="9misM1SqA0BYNmYFmZ5R-104" style="edgeStyle=orthogonalEdgeStyle;rounded=0;orthogonalLoop=1;jettySize=auto;html=1;endArrow=none;endFill=0;" edge="1" parent="1" source="0hOv-4cGE1IFnxYp0O-4-170">
          <mxGeometry relative="1" as="geometry">
            <mxPoint x="-140" y="930" as="targetPoint" />
          </mxGeometry>
        </mxCell>
        <mxCell id="0hOv-4cGE1IFnxYp0O-4-170" value="food_id" style="ellipse;whiteSpace=wrap;html=1;align=center;fontStyle=4;" parent="1" vertex="1">
          <mxGeometry x="-260" y="892" width="100" height="40" as="geometry" />
        </mxCell>
        <mxCell id="4778jP_3WZRPcaVqJOaR-14" value="" style="edgeStyle=orthogonalEdgeStyle;rounded=0;orthogonalLoop=1;jettySize=auto;html=1;endArrow=none;endFill=0;exitX=1;exitY=0.5;exitDx=0;exitDy=0;" parent="1" source="0hOv-4cGE1IFnxYp0O-4-180" edge="1">
          <mxGeometry relative="1" as="geometry">
            <Array as="points">
              <mxPoint x="-255" y="1047" />
              <mxPoint x="-255" y="1070" />
              <mxPoint x="-130" y="1070" />
            </Array>
            <mxPoint x="-284" y="1047" as="sourcePoint" />
            <mxPoint x="-130" y="1040" as="targetPoint" />
          </mxGeometry>
        </mxCell>
        <mxCell id="0hOv-4cGE1IFnxYp0O-4-181" value="supplement_id" style="ellipse;whiteSpace=wrap;html=1;align=center;fontStyle=4;" parent="1" vertex="1">
          <mxGeometry x="-247" y="1022.5" width="100" height="40" as="geometry" />
        </mxCell>
        <mxCell id="0hOv-4cGE1IFnxYp0O-4-176" value="&lt;span style=&quot;border-bottom: 1px dotted&quot;&gt;account_id&lt;/span&gt;" style="ellipse;whiteSpace=wrap;html=1;align=center;" parent="1" vertex="1">
          <mxGeometry x="-60" y="1108" width="100" height="40" as="geometry" />
        </mxCell>
        <mxCell id="4778jP_3WZRPcaVqJOaR-30" value="" style="edgeStyle=orthogonalEdgeStyle;rounded=0;orthogonalLoop=1;jettySize=auto;html=1;endArrow=none;endFill=0;entryX=0;entryY=1;entryDx=0;entryDy=0;exitX=1;exitY=0.5;exitDx=0;exitDy=0;" parent="1" source="0hOv-4cGE1IFnxYp0O-4-200" target="0hOv-4cGE1IFnxYp0O-4-202" edge="1">
          <mxGeometry relative="1" as="geometry">
            <mxPoint x="-295" y="866" as="targetPoint" />
            <Array as="points" />
            <mxPoint x="-515" y="850" as="sourcePoint" />
          </mxGeometry>
        </mxCell>
        <mxCell id="0hOv-4cGE1IFnxYp0O-4-202" value="&lt;span style=&quot;border-bottom: 1px dotted&quot;&gt;recipe_id&lt;/span&gt;" style="ellipse;whiteSpace=wrap;html=1;align=center;" parent="1" vertex="1">
          <mxGeometry x="-252.37" y="833" width="100" height="40" as="geometry" />
        </mxCell>
        <mxCell id="4778jP_3WZRPcaVqJOaR-33" value="" style="endArrow=none;html=1;rounded=0;exitX=0.115;exitY=-0.022;exitDx=0;exitDy=0;exitPerimeter=0;" parent="1" source="Ubex0Ra7HCPxJ83cHDF8-100" edge="1">
          <mxGeometry width="50" height="50" relative="1" as="geometry">
            <mxPoint x="-280" y="1010" as="sourcePoint" />
            <mxPoint x="-622" y="883" as="targetPoint" />
          </mxGeometry>
        </mxCell>
        <mxCell id="4778jP_3WZRPcaVqJOaR-36" style="edgeStyle=orthogonalEdgeStyle;rounded=0;orthogonalLoop=1;jettySize=auto;html=1;entryX=0.479;entryY=0.93;entryDx=0;entryDy=0;endArrow=none;endFill=0;entryPerimeter=0;" parent="1" edge="1">
          <mxGeometry relative="1" as="geometry">
            <mxPoint x="-622" y="883" as="sourcePoint" />
            <mxPoint x="-622.1" y="870.2000000000003" as="targetPoint" />
          </mxGeometry>
        </mxCell>
        <mxCell id="9misM1SqA0BYNmYFmZ5R-58" style="edgeStyle=orthogonalEdgeStyle;rounded=0;orthogonalLoop=1;jettySize=auto;html=1;endArrow=none;endFill=0;" edge="1" parent="1" source="0hOv-4cGE1IFnxYp0O-4-185">
          <mxGeometry relative="1" as="geometry">
            <mxPoint x="-97" y="690" as="targetPoint" />
          </mxGeometry>
        </mxCell>
        <mxCell id="0hOv-4cGE1IFnxYp0O-4-185" value="recipe_id" style="ellipse;whiteSpace=wrap;html=1;align=center;fontStyle=4;" parent="1" vertex="1">
          <mxGeometry x="-147" y="605.5" width="100" height="40" as="geometry" />
        </mxCell>
        <mxCell id="4778jP_3WZRPcaVqJOaR-52" value="" style="edgeStyle=orthogonalEdgeStyle;rounded=0;orthogonalLoop=1;jettySize=auto;html=1;entryX=1;entryY=0.5;entryDx=0;entryDy=0;endArrow=none;endFill=0;exitX=0;exitY=0.5;exitDx=0;exitDy=0;" parent="1" source="0hOv-4cGE1IFnxYp0O-4-146" target="0hOv-4cGE1IFnxYp0O-4-145" edge="1">
          <mxGeometry relative="1" as="geometry">
            <mxPoint x="1050" y="726" as="sourcePoint" />
            <mxPoint x="920" y="726" as="targetPoint" />
            <Array as="points" />
          </mxGeometry>
        </mxCell>
        <mxCell id="0hOv-4cGE1IFnxYp0O-4-145" value="fasting_id" style="ellipse;whiteSpace=wrap;html=1;align=center;fontStyle=4;" parent="1" vertex="1">
          <mxGeometry x="940" y="705.5" width="100" height="40" as="geometry" />
        </mxCell>
        <mxCell id="9misM1SqA0BYNmYFmZ5R-6" style="edgeStyle=orthogonalEdgeStyle;rounded=0;orthogonalLoop=1;jettySize=auto;html=1;entryX=0.5;entryY=0;entryDx=0;entryDy=0;endArrow=ERzeroToMany;endFill=0;" edge="1" parent="1" source="9misM1SqA0BYNmYFmZ5R-5" target="lQ856VbMLnPR7FZK5Fr0-1">
          <mxGeometry relative="1" as="geometry">
            <Array as="points">
              <mxPoint x="-10" y="280" />
              <mxPoint x="40" y="280" />
            </Array>
          </mxGeometry>
        </mxCell>
        <mxCell id="9misM1SqA0BYNmYFmZ5R-8" style="edgeStyle=orthogonalEdgeStyle;rounded=0;orthogonalLoop=1;jettySize=auto;html=1;entryX=1;entryY=0.5;entryDx=0;entryDy=0;endArrow=ERzeroToMany;endFill=0;" edge="1" parent="1" source="9misM1SqA0BYNmYFmZ5R-5" target="9misM1SqA0BYNmYFmZ5R-7">
          <mxGeometry relative="1" as="geometry" />
        </mxCell>
        <mxCell id="9misM1SqA0BYNmYFmZ5R-5" value="Login Sessions" style="shape=associativeEntity;whiteSpace=wrap;html=1;align=center;" vertex="1" parent="1">
          <mxGeometry x="-80" y="212" width="140" height="60" as="geometry" />
        </mxCell>
        <mxCell id="9misM1SqA0BYNmYFmZ5R-7" value="Devices" style="whiteSpace=wrap;html=1;align=center;" vertex="1" parent="1">
          <mxGeometry x="-227.5" y="222" width="100" height="40" as="geometry" />
        </mxCell>
        <mxCell id="9misM1SqA0BYNmYFmZ5R-10" style="edgeStyle=orthogonalEdgeStyle;rounded=0;orthogonalLoop=1;jettySize=auto;html=1;entryX=0.5;entryY=1;entryDx=0;entryDy=0;endArrow=none;endFill=0;" edge="1" parent="1" source="9misM1SqA0BYNmYFmZ5R-9" target="9misM1SqA0BYNmYFmZ5R-15">
          <mxGeometry relative="1" as="geometry">
            <mxPoint x="120" y="247" as="targetPoint" />
            <Array as="points">
              <mxPoint x="120" y="260" />
            </Array>
          </mxGeometry>
        </mxCell>
        <mxCell id="9misM1SqA0BYNmYFmZ5R-9" value="notification_id" style="ellipse;whiteSpace=wrap;html=1;align=center;fontStyle=4;" vertex="1" parent="1">
          <mxGeometry x="135" y="260" width="100" height="40" as="geometry" />
        </mxCell>
        <mxCell id="9misM1SqA0BYNmYFmZ5R-14" style="edgeStyle=orthogonalEdgeStyle;rounded=0;orthogonalLoop=1;jettySize=auto;html=1;endArrow=none;endFill=0;" edge="1" parent="1" source="9misM1SqA0BYNmYFmZ5R-11" target="9misM1SqA0BYNmYFmZ5R-7">
          <mxGeometry relative="1" as="geometry" />
        </mxCell>
        <mxCell id="9misM1SqA0BYNmYFmZ5R-11" value="device_id" style="ellipse;whiteSpace=wrap;html=1;align=center;fontStyle=4;" vertex="1" parent="1">
          <mxGeometry x="-227" y="122" width="100" height="40" as="geometry" />
        </mxCell>
        <mxCell id="9misM1SqA0BYNmYFmZ5R-13" style="edgeStyle=orthogonalEdgeStyle;rounded=0;orthogonalLoop=1;jettySize=auto;html=1;endArrow=none;endFill=0;" edge="1" parent="1" source="9misM1SqA0BYNmYFmZ5R-12" target="9misM1SqA0BYNmYFmZ5R-5">
          <mxGeometry relative="1" as="geometry" />
        </mxCell>
        <mxCell id="9misM1SqA0BYNmYFmZ5R-12" value="login_id" style="ellipse;whiteSpace=wrap;html=1;align=center;fontStyle=4;" vertex="1" parent="1">
          <mxGeometry x="-50" y="102" width="100" height="40" as="geometry" />
        </mxCell>
        <mxCell id="9misM1SqA0BYNmYFmZ5R-15" value="Notification" style="shape=ext;margin=3;double=1;whiteSpace=wrap;html=1;align=center;" vertex="1" parent="1">
          <mxGeometry x="70" y="207" width="100" height="40" as="geometry" />
        </mxCell>
        <mxCell id="9misM1SqA0BYNmYFmZ5R-16" value="&lt;span style=&quot;border-bottom: 1px dotted&quot;&gt;food_challenge_id&lt;/span&gt;" style="ellipse;whiteSpace=wrap;html=1;align=center;" vertex="1" parent="1">
          <mxGeometry x="-340" y="92" width="100" height="40" as="geometry" />
        </mxCell>
        <mxCell id="9misM1SqA0BYNmYFmZ5R-18" style="edgeStyle=orthogonalEdgeStyle;rounded=0;orthogonalLoop=1;jettySize=auto;html=1;exitX=0.5;exitY=1;exitDx=0;exitDy=0;endArrow=none;endFill=0;" edge="1" parent="1" source="9misM1SqA0BYNmYFmZ5R-17">
          <mxGeometry relative="1" as="geometry">
            <mxPoint x="-350" y="160" as="targetPoint" />
          </mxGeometry>
        </mxCell>
        <mxCell id="9misM1SqA0BYNmYFmZ5R-17" value="&lt;span style=&quot;border-bottom: 1px dotted&quot;&gt;account_id&lt;/span&gt;" style="ellipse;whiteSpace=wrap;html=1;align=center;" vertex="1" parent="1">
          <mxGeometry x="-454.25" y="60" width="100" height="40" as="geometry" />
        </mxCell>
        <mxCell id="9misM1SqA0BYNmYFmZ5R-22" style="edgeStyle=orthogonalEdgeStyle;rounded=0;orthogonalLoop=1;jettySize=auto;html=1;endArrow=none;endFill=0;" edge="1" parent="1" source="9misM1SqA0BYNmYFmZ5R-19">
          <mxGeometry relative="1" as="geometry">
            <mxPoint x="-630" y="210" as="targetPoint" />
          </mxGeometry>
        </mxCell>
        <mxCell id="9misM1SqA0BYNmYFmZ5R-19" value="&lt;span style=&quot;border-bottom: 1px dotted&quot;&gt;exercise_challenege_id&lt;/span&gt;" style="ellipse;whiteSpace=wrap;html=1;align=center;" vertex="1" parent="1">
          <mxGeometry x="-680" y="243" width="100" height="40" as="geometry" />
        </mxCell>
        <mxCell id="9misM1SqA0BYNmYFmZ5R-21" style="edgeStyle=orthogonalEdgeStyle;rounded=0;orthogonalLoop=1;jettySize=auto;html=1;entryX=0;entryY=0.25;entryDx=0;entryDy=0;endArrow=none;endFill=0;" edge="1" parent="1" source="9misM1SqA0BYNmYFmZ5R-20" target="Ubex0Ra7HCPxJ83cHDF8-83">
          <mxGeometry relative="1" as="geometry">
            <Array as="points">
              <mxPoint x="-630" y="230" />
              <mxPoint x="-440" y="230" />
              <mxPoint x="-440" y="243" />
            </Array>
          </mxGeometry>
        </mxCell>
        <mxCell id="9misM1SqA0BYNmYFmZ5R-20" value="&lt;span style=&quot;border-bottom: 1px dotted&quot;&gt;account_id&lt;/span&gt;" style="ellipse;whiteSpace=wrap;html=1;align=center;" vertex="1" parent="1">
          <mxGeometry x="-680" y="158" width="100" height="40" as="geometry" />
        </mxCell>
        <mxCell id="9misM1SqA0BYNmYFmZ5R-27" style="edgeStyle=orthogonalEdgeStyle;rounded=0;orthogonalLoop=1;jettySize=auto;html=1;exitX=1;exitY=0.5;exitDx=0;exitDy=0;endArrow=none;endFill=0;" edge="1" parent="1" source="9misM1SqA0BYNmYFmZ5R-31">
          <mxGeometry relative="1" as="geometry">
            <mxPoint x="420" y="-170" as="targetPoint" />
            <mxPoint x="330" y="-180" as="sourcePoint" />
          </mxGeometry>
        </mxCell>
        <mxCell id="9misM1SqA0BYNmYFmZ5R-26" style="edgeStyle=orthogonalEdgeStyle;rounded=0;orthogonalLoop=1;jettySize=auto;html=1;entryX=0;entryY=0.25;entryDx=0;entryDy=0;endArrow=none;endFill=0;exitX=0.5;exitY=1;exitDx=0;exitDy=0;" edge="1" parent="1" source="9misM1SqA0BYNmYFmZ5R-29" target="Zpv9UvLriDffYdWMjb3y-62">
          <mxGeometry relative="1" as="geometry">
            <mxPoint x="406" y="-190" as="sourcePoint" />
            <Array as="points">
              <mxPoint x="406" y="-220" />
              <mxPoint x="406" y="-170" />
              <mxPoint x="440" y="-170" />
              <mxPoint x="440" y="-145" />
            </Array>
          </mxGeometry>
        </mxCell>
        <mxCell id="9misM1SqA0BYNmYFmZ5R-29" value="post_id" style="ellipse;whiteSpace=wrap;html=1;align=center;fontStyle=4;" vertex="1" parent="1">
          <mxGeometry x="356" y="-240" width="100" height="40" as="geometry" />
        </mxCell>
        <mxCell id="9misM1SqA0BYNmYFmZ5R-31" value="multimedia_id" style="ellipse;whiteSpace=wrap;html=1;align=center;fontStyle=4;" vertex="1" parent="1">
          <mxGeometry x="270" y="-190" width="100" height="40" as="geometry" />
        </mxCell>
        <mxCell id="9misM1SqA0BYNmYFmZ5R-34" style="edgeStyle=orthogonalEdgeStyle;rounded=0;orthogonalLoop=1;jettySize=auto;html=1;exitX=0.5;exitY=1;exitDx=0;exitDy=0;entryX=0;entryY=0;entryDx=0;entryDy=0;endArrow=none;endFill=0;" edge="1" parent="1" source="9misM1SqA0BYNmYFmZ5R-32" target="Zpv9UvLriDffYdWMjb3y-45">
          <mxGeometry relative="1" as="geometry" />
        </mxCell>
        <mxCell id="9misM1SqA0BYNmYFmZ5R-32" value="&lt;span style=&quot;border-bottom: 1px dotted&quot;&gt;account_id&lt;/span&gt;" style="ellipse;whiteSpace=wrap;html=1;align=center;" vertex="1" parent="1">
          <mxGeometry x="1100" y="385" width="100" height="40" as="geometry" />
        </mxCell>
        <mxCell id="9misM1SqA0BYNmYFmZ5R-38" style="edgeStyle=orthogonalEdgeStyle;rounded=0;orthogonalLoop=1;jettySize=auto;html=1;entryX=0.5;entryY=1;entryDx=0;entryDy=0;endArrow=none;endFill=0;" edge="1" parent="1" source="9misM1SqA0BYNmYFmZ5R-36" target="0hOv-4cGE1IFnxYp0O-4-91">
          <mxGeometry relative="1" as="geometry" />
        </mxCell>
        <mxCell id="9misM1SqA0BYNmYFmZ5R-36" value="&lt;span style=&quot;border-bottom: 1px dotted&quot;&gt;group_id&lt;/span&gt;" style="ellipse;whiteSpace=wrap;html=1;align=center;" vertex="1" parent="1">
          <mxGeometry x="1162" y="626" width="100" height="40" as="geometry" />
        </mxCell>
        <mxCell id="9misM1SqA0BYNmYFmZ5R-39" style="edgeStyle=orthogonalEdgeStyle;rounded=0;orthogonalLoop=1;jettySize=auto;html=1;endArrow=none;endFill=0;" edge="1" parent="1" source="9misM1SqA0BYNmYFmZ5R-37">
          <mxGeometry relative="1" as="geometry">
            <mxPoint x="1230" y="580" as="targetPoint" />
            <Array as="points">
              <mxPoint x="1290" y="600" />
              <mxPoint x="1231" y="600" />
            </Array>
          </mxGeometry>
        </mxCell>
        <mxCell id="9misM1SqA0BYNmYFmZ5R-37" value="&lt;span style=&quot;border-bottom: 1px dotted&quot;&gt;account_id&lt;/span&gt;" style="ellipse;whiteSpace=wrap;html=1;align=center;" vertex="1" parent="1">
          <mxGeometry x="1240" y="673" width="100" height="40" as="geometry" />
        </mxCell>
        <mxCell id="9misM1SqA0BYNmYFmZ5R-42" style="edgeStyle=orthogonalEdgeStyle;rounded=0;orthogonalLoop=1;jettySize=auto;html=1;exitX=0.5;exitY=1;exitDx=0;exitDy=0;entryX=0.5;entryY=0;entryDx=0;entryDy=0;endArrow=none;endFill=0;" edge="1" parent="1" source="9misM1SqA0BYNmYFmZ5R-40" target="Zpv9UvLriDffYdWMjb3y-45">
          <mxGeometry relative="1" as="geometry" />
        </mxCell>
        <mxCell id="9misM1SqA0BYNmYFmZ5R-40" value="group_id" style="ellipse;whiteSpace=wrap;html=1;align=center;fontStyle=4;" vertex="1" parent="1">
          <mxGeometry x="1220" y="387" width="100" height="40" as="geometry" />
        </mxCell>
        <mxCell id="9misM1SqA0BYNmYFmZ5R-46" style="edgeStyle=orthogonalEdgeStyle;rounded=0;orthogonalLoop=1;jettySize=auto;html=1;entryX=0.5;entryY=1;entryDx=0;entryDy=0;endArrow=none;endFill=0;" edge="1" parent="1" source="9misM1SqA0BYNmYFmZ5R-43" target="Ubex0Ra7HCPxJ83cHDF8-29">
          <mxGeometry relative="1" as="geometry">
            <Array as="points">
              <mxPoint x="640" y="1030" />
              <mxPoint x="710" y="1030" />
            </Array>
          </mxGeometry>
        </mxCell>
        <mxCell id="9misM1SqA0BYNmYFmZ5R-43" value="&lt;span style=&quot;border-bottom: 1px dotted&quot;&gt;account_id&lt;/span&gt;" style="ellipse;whiteSpace=wrap;html=1;align=center;" vertex="1" parent="1">
          <mxGeometry x="590" y="1038" width="100" height="40" as="geometry" />
        </mxCell>
        <mxCell id="9misM1SqA0BYNmYFmZ5R-45" style="edgeStyle=orthogonalEdgeStyle;rounded=0;orthogonalLoop=1;jettySize=auto;html=1;entryX=0.5;entryY=1;entryDx=0;entryDy=0;endArrow=none;endFill=0;" edge="1" parent="1" source="9misM1SqA0BYNmYFmZ5R-44" target="Ubex0Ra7HCPxJ83cHDF8-29">
          <mxGeometry relative="1" as="geometry">
            <Array as="points">
              <mxPoint x="790" y="1028" />
              <mxPoint x="710" y="1028" />
            </Array>
          </mxGeometry>
        </mxCell>
        <mxCell id="9misM1SqA0BYNmYFmZ5R-44" value="&lt;span style=&quot;border-bottom: 1px dotted&quot;&gt;exercise_plan_id&lt;/span&gt;" style="ellipse;whiteSpace=wrap;html=1;align=center;" vertex="1" parent="1">
          <mxGeometry x="740" y="1042" width="100" height="40" as="geometry" />
        </mxCell>
        <mxCell id="9misM1SqA0BYNmYFmZ5R-49" style="edgeStyle=orthogonalEdgeStyle;rounded=0;orthogonalLoop=1;jettySize=auto;html=1;entryX=0.75;entryY=1;entryDx=0;entryDy=0;endArrow=none;endFill=0;" edge="1" parent="1" source="9misM1SqA0BYNmYFmZ5R-47" target="0hOv-4cGE1IFnxYp0O-4-90">
          <mxGeometry relative="1" as="geometry" />
        </mxCell>
        <mxCell id="9misM1SqA0BYNmYFmZ5R-47" value="&lt;span style=&quot;border-bottom: 1px dotted&quot;&gt;exercise_id&lt;/span&gt;" style="ellipse;whiteSpace=wrap;html=1;align=center;" vertex="1" parent="1">
          <mxGeometry x="1096" y="1116.5" width="100" height="40" as="geometry" />
        </mxCell>
        <mxCell id="9misM1SqA0BYNmYFmZ5R-50" style="edgeStyle=orthogonalEdgeStyle;rounded=0;orthogonalLoop=1;jettySize=auto;html=1;entryX=0.75;entryY=1;entryDx=0;entryDy=0;endArrow=none;endFill=0;" edge="1" parent="1" source="9misM1SqA0BYNmYFmZ5R-48" target="0hOv-4cGE1IFnxYp0O-4-90">
          <mxGeometry relative="1" as="geometry">
            <Array as="points">
              <mxPoint x="1240" y="1060" />
              <mxPoint x="1174" y="1060" />
            </Array>
          </mxGeometry>
        </mxCell>
        <mxCell id="9misM1SqA0BYNmYFmZ5R-48" value="&lt;span style=&quot;border-bottom: 1px dotted&quot;&gt;exercise_plan_id&lt;/span&gt;" style="ellipse;whiteSpace=wrap;html=1;align=center;" vertex="1" parent="1">
          <mxGeometry x="1190" y="1074.5" width="100" height="40" as="geometry" />
        </mxCell>
        <mxCell id="9misM1SqA0BYNmYFmZ5R-51" value="&lt;span style=&quot;border-bottom: 1px dotted&quot;&gt;account_id&lt;/span&gt;" style="ellipse;whiteSpace=wrap;html=1;align=center;" vertex="1" parent="1">
          <mxGeometry x="1230" y="831.5" width="100" height="40" as="geometry" />
        </mxCell>
        <mxCell id="9misM1SqA0BYNmYFmZ5R-53" style="edgeStyle=orthogonalEdgeStyle;rounded=0;orthogonalLoop=1;jettySize=auto;html=1;exitX=0.5;exitY=0;exitDx=0;exitDy=0;entryX=1;entryY=0.5;entryDx=0;entryDy=0;endArrow=none;endFill=0;" edge="1" parent="1" source="9misM1SqA0BYNmYFmZ5R-52" target="Zpv9UvLriDffYdWMjb3y-16">
          <mxGeometry relative="1" as="geometry" />
        </mxCell>
        <mxCell id="9misM1SqA0BYNmYFmZ5R-52" value="&lt;span style=&quot;border-bottom: 1px dotted&quot;&gt;exercise_id&lt;/span&gt;" style="ellipse;whiteSpace=wrap;html=1;align=center;" vertex="1" parent="1">
          <mxGeometry x="1230" y="922.5" width="100" height="40" as="geometry" />
        </mxCell>
        <mxCell id="9misM1SqA0BYNmYFmZ5R-55" style="edgeStyle=orthogonalEdgeStyle;rounded=0;orthogonalLoop=1;jettySize=auto;html=1;entryX=0.5;entryY=0;entryDx=0;entryDy=0;endArrow=none;endFill=0;exitX=1;exitY=0.5;exitDx=0;exitDy=0;" edge="1" parent="1" source="9misM1SqA0BYNmYFmZ5R-54" target="Ubex0Ra7HCPxJ83cHDF8-12">
          <mxGeometry relative="1" as="geometry">
            <Array as="points">
              <mxPoint x="830" y="860" />
              <mxPoint x="850" y="860" />
              <mxPoint x="850" y="862" />
              <mxPoint x="870" y="862" />
            </Array>
          </mxGeometry>
        </mxCell>
        <mxCell id="9misM1SqA0BYNmYFmZ5R-54" value="&lt;span style=&quot;border-bottom: 1px dotted&quot;&gt;account_id&lt;/span&gt;" style="ellipse;whiteSpace=wrap;html=1;align=center;" vertex="1" parent="1">
          <mxGeometry x="730" y="844" width="100" height="40" as="geometry" />
        </mxCell>
        <mxCell id="9misM1SqA0BYNmYFmZ5R-60" style="edgeStyle=orthogonalEdgeStyle;rounded=0;orthogonalLoop=1;jettySize=auto;html=1;entryX=0.25;entryY=0;entryDx=0;entryDy=0;endArrow=none;endFill=0;" edge="1" parent="1" source="9misM1SqA0BYNmYFmZ5R-59" target="0hOv-4cGE1IFnxYp0O-4-5">
          <mxGeometry relative="1" as="geometry">
            <Array as="points">
              <mxPoint x="-360" y="665" />
              <mxPoint x="-359" y="665" />
            </Array>
          </mxGeometry>
        </mxCell>
        <mxCell id="9misM1SqA0BYNmYFmZ5R-59" value="&lt;span style=&quot;border-bottom: 1px dotted&quot;&gt;recipe_id&lt;/span&gt;" style="ellipse;whiteSpace=wrap;html=1;align=center;" vertex="1" parent="1">
          <mxGeometry x="-433" y="605.5" width="100" height="40" as="geometry" />
        </mxCell>
        <mxCell id="9misM1SqA0BYNmYFmZ5R-62" style="edgeStyle=orthogonalEdgeStyle;rounded=0;orthogonalLoop=1;jettySize=auto;html=1;entryX=1;entryY=0.75;entryDx=0;entryDy=0;endArrow=none;endFill=0;" edge="1" parent="1" source="9misM1SqA0BYNmYFmZ5R-61" target="0hOv-4cGE1IFnxYp0O-4-5">
          <mxGeometry relative="1" as="geometry" />
        </mxCell>
        <mxCell id="9misM1SqA0BYNmYFmZ5R-61" value="&lt;span style=&quot;border-bottom: 1px dotted&quot;&gt;meal_category_id&lt;/span&gt;" style="ellipse;whiteSpace=wrap;html=1;align=center;" vertex="1" parent="1">
          <mxGeometry x="-227.5" y="702.5" width="100" height="40" as="geometry" />
        </mxCell>
        <mxCell id="9misM1SqA0BYNmYFmZ5R-63" value="&lt;span style=&quot;border-bottom: 1px dotted&quot;&gt;meal_category_id&lt;/span&gt;" style="ellipse;whiteSpace=wrap;html=1;align=center;" vertex="1" parent="1">
          <mxGeometry x="-654" y="465" width="100" height="40" as="geometry" />
        </mxCell>
        <mxCell id="9misM1SqA0BYNmYFmZ5R-65" style="edgeStyle=orthogonalEdgeStyle;rounded=0;orthogonalLoop=1;jettySize=auto;html=1;entryX=0.25;entryY=1;entryDx=0;entryDy=0;endArrow=none;endFill=0;" edge="1" parent="1" source="9misM1SqA0BYNmYFmZ5R-64" target="0hOv-4cGE1IFnxYp0O-4-87">
          <mxGeometry relative="1" as="geometry">
            <Array as="points">
              <mxPoint x="-504" y="510" />
              <mxPoint x="-485" y="510" />
            </Array>
          </mxGeometry>
        </mxCell>
        <mxCell id="9misM1SqA0BYNmYFmZ5R-64" value="&lt;span style=&quot;border-bottom: 1px dotted&quot;&gt;meal_plan_id&lt;/span&gt;" style="ellipse;whiteSpace=wrap;html=1;align=center;" vertex="1" parent="1">
          <mxGeometry x="-554.25" y="519" width="100" height="40" as="geometry" />
        </mxCell>
        <mxCell id="9misM1SqA0BYNmYFmZ5R-69" style="edgeStyle=orthogonalEdgeStyle;rounded=0;orthogonalLoop=1;jettySize=auto;html=1;entryX=1;entryY=0.5;entryDx=0;entryDy=0;endArrow=none;endFill=0;" edge="1" parent="1" source="9misM1SqA0BYNmYFmZ5R-67" target="Ubex0Ra7HCPxJ83cHDF8-21">
          <mxGeometry relative="1" as="geometry">
            <Array as="points">
              <mxPoint x="-330" y="352" />
              <mxPoint x="-330" y="360" />
            </Array>
          </mxGeometry>
        </mxCell>
        <mxCell id="9misM1SqA0BYNmYFmZ5R-67" value="&lt;span style=&quot;border-bottom: 1px dotted&quot;&gt;meal_plan_id&lt;/span&gt;" style="ellipse;whiteSpace=wrap;html=1;align=center;" vertex="1" parent="1">
          <mxGeometry x="-294" y="332" width="100" height="40" as="geometry" />
        </mxCell>
        <mxCell id="9misM1SqA0BYNmYFmZ5R-68" value="&lt;span style=&quot;border-bottom: 1px dotted&quot;&gt;account_id&lt;/span&gt;" style="ellipse;whiteSpace=wrap;html=1;align=center;" vertex="1" parent="1">
          <mxGeometry x="-306.25" y="377" width="100" height="40" as="geometry" />
        </mxCell>
        <mxCell id="9misM1SqA0BYNmYFmZ5R-76" style="edgeStyle=orthogonalEdgeStyle;rounded=0;orthogonalLoop=1;jettySize=auto;html=1;entryX=0.5;entryY=0;entryDx=0;entryDy=0;endArrow=none;endFill=0;" edge="1" parent="1" source="9misM1SqA0BYNmYFmZ5R-70" target="0hOv-4cGE1IFnxYp0O-4-84">
          <mxGeometry relative="1" as="geometry">
            <Array as="points">
              <mxPoint x="-250" y="540" />
            </Array>
          </mxGeometry>
        </mxCell>
        <mxCell id="9misM1SqA0BYNmYFmZ5R-70" value="&lt;span style=&quot;border-bottom: 1px dotted&quot;&gt;meal_plan_id&lt;/span&gt;" style="ellipse;whiteSpace=wrap;html=1;align=center;" vertex="1" parent="1">
          <mxGeometry x="-360" y="520" width="100" height="40" as="geometry" />
        </mxCell>
        <mxCell id="9misM1SqA0BYNmYFmZ5R-71" value="&lt;span style=&quot;border-bottom: 1px dotted&quot;&gt;recipe_id&lt;/span&gt;" style="ellipse;whiteSpace=wrap;html=1;align=center;" vertex="1" parent="1">
          <mxGeometry x="-227.5" y="520" width="100" height="40" as="geometry" />
        </mxCell>
        <mxCell id="9misM1SqA0BYNmYFmZ5R-81" style="edgeStyle=orthogonalEdgeStyle;rounded=0;orthogonalLoop=1;jettySize=auto;html=1;entryX=1;entryY=0.25;entryDx=0;entryDy=0;endArrow=none;endFill=0;" edge="1" parent="1" source="9misM1SqA0BYNmYFmZ5R-77" target="Ubex0Ra7HCPxJ83cHDF8-1">
          <mxGeometry relative="1" as="geometry" />
        </mxCell>
        <mxCell id="9misM1SqA0BYNmYFmZ5R-77" value="&lt;span style=&quot;border-bottom: 1px dotted&quot;&gt;account_id&lt;/span&gt;" style="ellipse;whiteSpace=wrap;html=1;align=center;" vertex="1" parent="1">
          <mxGeometry x="243" y="702.5" width="100" height="40" as="geometry" />
        </mxCell>
        <mxCell id="9misM1SqA0BYNmYFmZ5R-79" style="edgeStyle=orthogonalEdgeStyle;rounded=0;orthogonalLoop=1;jettySize=auto;html=1;exitX=0.5;exitY=1;exitDx=0;exitDy=0;entryX=1;entryY=0;entryDx=0;entryDy=0;endArrow=none;endFill=0;" edge="1" parent="1" source="9misM1SqA0BYNmYFmZ5R-78" target="Ubex0Ra7HCPxJ83cHDF8-1">
          <mxGeometry relative="1" as="geometry">
            <Array as="points">
              <mxPoint x="193" y="740" />
              <mxPoint x="250" y="740" />
              <mxPoint x="250" y="747" />
            </Array>
          </mxGeometry>
        </mxCell>
        <mxCell id="9misM1SqA0BYNmYFmZ5R-78" value="&lt;span style=&quot;border-bottom: 1px dotted&quot;&gt;recipe_id&lt;/span&gt;" style="ellipse;whiteSpace=wrap;html=1;align=center;" vertex="1" parent="1">
          <mxGeometry x="143" y="695.5" width="100" height="40" as="geometry" />
        </mxCell>
        <mxCell id="9misM1SqA0BYNmYFmZ5R-83" style="edgeStyle=orthogonalEdgeStyle;rounded=0;orthogonalLoop=1;jettySize=auto;html=1;entryX=1;entryY=0.75;entryDx=0;entryDy=0;endArrow=none;endFill=0;" edge="1" parent="1" source="9misM1SqA0BYNmYFmZ5R-82" target="0hOv-4cGE1IFnxYp0O-4-71">
          <mxGeometry relative="1" as="geometry" />
        </mxCell>
        <mxCell id="9misM1SqA0BYNmYFmZ5R-82" value="&lt;span style=&quot;border-bottom: 1px dotted&quot;&gt;recipe_id&lt;/span&gt;" style="ellipse;whiteSpace=wrap;html=1;align=center;" vertex="1" parent="1">
          <mxGeometry x="-347" y="954" width="100" height="40" as="geometry" />
        </mxCell>
        <mxCell id="9misM1SqA0BYNmYFmZ5R-85" style="edgeStyle=orthogonalEdgeStyle;rounded=0;orthogonalLoop=1;jettySize=auto;html=1;entryX=1;entryY=1;entryDx=0;entryDy=0;endArrow=none;endFill=0;" edge="1" parent="1" source="9misM1SqA0BYNmYFmZ5R-84" target="0hOv-4cGE1IFnxYp0O-4-71">
          <mxGeometry relative="1" as="geometry">
            <Array as="points">
              <mxPoint x="-194" y="1000" />
              <mxPoint x="-340" y="1000" />
              <mxPoint x="-340" y="990" />
              <mxPoint x="-379" y="990" />
            </Array>
          </mxGeometry>
        </mxCell>
        <mxCell id="9misM1SqA0BYNmYFmZ5R-84" value="&lt;span style=&quot;border-bottom: 1px dotted&quot;&gt;nutrition_id&lt;/span&gt;" style="ellipse;whiteSpace=wrap;html=1;align=center;" vertex="1" parent="1">
          <mxGeometry x="-244" y="958" width="100" height="40" as="geometry" />
        </mxCell>
        <mxCell id="9misM1SqA0BYNmYFmZ5R-90" style="edgeStyle=orthogonalEdgeStyle;rounded=0;orthogonalLoop=1;jettySize=auto;html=1;entryX=1;entryY=0.25;entryDx=0;entryDy=0;endArrow=none;endFill=0;" edge="1" parent="1" source="9misM1SqA0BYNmYFmZ5R-86" target="0hOv-4cGE1IFnxYp0O-4-68">
          <mxGeometry relative="1" as="geometry">
            <Array as="points">
              <mxPoint x="160" y="681" />
            </Array>
          </mxGeometry>
        </mxCell>
        <mxCell id="9misM1SqA0BYNmYFmZ5R-86" value="&lt;span style=&quot;border-bottom: 1px dotted&quot;&gt;account_id&lt;/span&gt;" style="ellipse;whiteSpace=wrap;html=1;align=center;" vertex="1" parent="1">
          <mxGeometry x="150" y="630" width="100" height="40" as="geometry" />
        </mxCell>
        <mxCell id="9misM1SqA0BYNmYFmZ5R-91" style="edgeStyle=orthogonalEdgeStyle;rounded=0;orthogonalLoop=1;jettySize=auto;html=1;endArrow=none;endFill=0;" edge="1" parent="1" source="9misM1SqA0BYNmYFmZ5R-87">
          <mxGeometry relative="1" as="geometry">
            <mxPoint x="140" y="680" as="targetPoint" />
            <Array as="points">
              <mxPoint x="199" y="680" />
              <mxPoint x="140" y="681" />
            </Array>
          </mxGeometry>
        </mxCell>
        <mxCell id="9misM1SqA0BYNmYFmZ5R-87" value="&lt;span style=&quot;border-bottom: 1px dotted&quot;&gt;recipe_id&lt;/span&gt;" style="ellipse;whiteSpace=wrap;html=1;align=center;" vertex="1" parent="1">
          <mxGeometry x="249" y="645.5" width="100" height="40" as="geometry" />
        </mxCell>
        <mxCell id="9misM1SqA0BYNmYFmZ5R-93" style="edgeStyle=orthogonalEdgeStyle;rounded=0;orthogonalLoop=1;jettySize=auto;html=1;entryX=1;entryY=0.75;entryDx=0;entryDy=0;endArrow=none;endFill=0;" edge="1" parent="1" source="9misM1SqA0BYNmYFmZ5R-92" target="0hOv-4cGE1IFnxYp0O-4-80">
          <mxGeometry relative="1" as="geometry" />
        </mxCell>
        <mxCell id="9misM1SqA0BYNmYFmZ5R-92" value="&lt;span style=&quot;border-bottom: 1px dotted&quot;&gt;nutrition_id&lt;/span&gt;" style="ellipse;whiteSpace=wrap;html=1;align=center;" vertex="1" parent="1">
          <mxGeometry x="-344" y="1091.5" width="100" height="40" as="geometry" />
        </mxCell>
        <mxCell id="9misM1SqA0BYNmYFmZ5R-95" style="edgeStyle=orthogonalEdgeStyle;rounded=0;orthogonalLoop=1;jettySize=auto;html=1;entryX=1;entryY=0.75;entryDx=0;entryDy=0;endArrow=none;endFill=0;exitX=0.5;exitY=1;exitDx=0;exitDy=0;" edge="1" parent="1" source="9misM1SqA0BYNmYFmZ5R-96" target="0hOv-4cGE1IFnxYp0O-4-80">
          <mxGeometry relative="1" as="geometry">
            <mxPoint x="-170" y="1137" as="sourcePoint" />
            <Array as="points">
              <mxPoint x="-170" y="1140" />
              <mxPoint x="-370" y="1140" />
              <mxPoint x="-370" y="1107" />
            </Array>
          </mxGeometry>
        </mxCell>
        <mxCell id="9misM1SqA0BYNmYFmZ5R-96" value="&lt;span style=&quot;border-bottom: 1px dotted&quot;&gt;supplement_id&lt;/span&gt;" style="ellipse;whiteSpace=wrap;html=1;align=center;" vertex="1" parent="1">
          <mxGeometry x="-220" y="1092.5" width="100" height="40" as="geometry" />
        </mxCell>
        <mxCell id="9misM1SqA0BYNmYFmZ5R-100" style="edgeStyle=orthogonalEdgeStyle;rounded=0;orthogonalLoop=1;jettySize=auto;html=1;exitX=0;exitY=0.5;exitDx=0;exitDy=0;endArrow=none;endFill=0;" edge="1" parent="1" source="9misM1SqA0BYNmYFmZ5R-97">
          <mxGeometry relative="1" as="geometry">
            <mxPoint x="280" y="1152.6" as="targetPoint" />
          </mxGeometry>
        </mxCell>
        <mxCell id="9misM1SqA0BYNmYFmZ5R-97" value="&lt;span style=&quot;border-bottom: 1px dotted&quot;&gt;account_id&lt;/span&gt;" style="ellipse;whiteSpace=wrap;html=1;align=center;" vertex="1" parent="1">
          <mxGeometry x="340" y="1132.5" width="100" height="40" as="geometry" />
        </mxCell>
        <mxCell id="9misM1SqA0BYNmYFmZ5R-99" style="edgeStyle=orthogonalEdgeStyle;rounded=0;orthogonalLoop=1;jettySize=auto;html=1;entryX=1;entryY=0.25;entryDx=0;entryDy=0;endArrow=none;endFill=0;exitX=0.5;exitY=0;exitDx=0;exitDy=0;" edge="1" parent="1" source="9misM1SqA0BYNmYFmZ5R-101" target="0hOv-4cGE1IFnxYp0O-4-57">
          <mxGeometry relative="1" as="geometry">
            <mxPoint x="330.03999999999996" y="1168.0986496940536" as="sourcePoint" />
            <Array as="points">
              <mxPoint x="330" y="1151" />
            </Array>
          </mxGeometry>
        </mxCell>
        <mxCell id="9misM1SqA0BYNmYFmZ5R-101" value="&lt;span style=&quot;border-bottom: 1px dotted&quot;&gt;supplement_id&lt;/span&gt;" style="ellipse;whiteSpace=wrap;html=1;align=center;" vertex="1" parent="1">
          <mxGeometry x="280" y="1167" width="100" height="40" as="geometry" />
        </mxCell>
        <mxCell id="9misM1SqA0BYNmYFmZ5R-108" style="edgeStyle=orthogonalEdgeStyle;rounded=0;orthogonalLoop=1;jettySize=auto;html=1;endArrow=none;endFill=0;" edge="1" parent="1" source="9misM1SqA0BYNmYFmZ5R-105">
          <mxGeometry relative="1" as="geometry">
            <mxPoint x="-450" y="1190" as="targetPoint" />
            <Array as="points">
              <mxPoint x="-460" y="1220" />
              <mxPoint x="-449" y="1220" />
              <mxPoint x="-449" y="1190" />
            </Array>
          </mxGeometry>
        </mxCell>
        <mxCell id="9misM1SqA0BYNmYFmZ5R-105" value="&lt;span style=&quot;border-bottom: 1px dotted&quot;&gt;nutrition_id&lt;/span&gt;" style="ellipse;whiteSpace=wrap;html=1;align=center;" vertex="1" parent="1">
          <mxGeometry x="-510" y="1235" width="100" height="40" as="geometry" />
        </mxCell>
        <mxCell id="9misM1SqA0BYNmYFmZ5R-107" style="edgeStyle=orthogonalEdgeStyle;rounded=0;orthogonalLoop=1;jettySize=auto;html=1;entryX=0.5;entryY=1;entryDx=0;entryDy=0;endArrow=none;endFill=0;" edge="1" parent="1" source="9misM1SqA0BYNmYFmZ5R-106" target="0hOv-4cGE1IFnxYp0O-4-83">
          <mxGeometry relative="1" as="geometry">
            <Array as="points">
              <mxPoint x="-344" y="1213" />
              <mxPoint x="-449" y="1213" />
            </Array>
          </mxGeometry>
        </mxCell>
        <mxCell id="9misM1SqA0BYNmYFmZ5R-106" value="&lt;span style=&quot;border-bottom: 1px dotted&quot;&gt;medication_id&lt;/span&gt;" style="ellipse;whiteSpace=wrap;html=1;align=center;" vertex="1" parent="1">
          <mxGeometry x="-394" y="1226.5" width="100" height="40" as="geometry" />
        </mxCell>
        <mxCell id="9misM1SqA0BYNmYFmZ5R-111" style="edgeStyle=orthogonalEdgeStyle;rounded=0;orthogonalLoop=1;jettySize=auto;html=1;entryX=1;entryY=0.5;entryDx=0;entryDy=0;endArrow=none;endFill=0;" edge="1" parent="1" source="9misM1SqA0BYNmYFmZ5R-109" target="0hOv-4cGE1IFnxYp0O-4-63">
          <mxGeometry relative="1" as="geometry" />
        </mxCell>
        <mxCell id="9misM1SqA0BYNmYFmZ5R-109" value="&lt;span style=&quot;border-bottom: 1px dotted&quot;&gt;account_id&lt;/span&gt;" style="ellipse;whiteSpace=wrap;html=1;align=center;" vertex="1" parent="1">
          <mxGeometry x="350" y="1235" width="100" height="40" as="geometry" />
        </mxCell>
        <mxCell id="9misM1SqA0BYNmYFmZ5R-112" style="edgeStyle=orthogonalEdgeStyle;rounded=0;orthogonalLoop=1;jettySize=auto;html=1;entryX=0.75;entryY=1;entryDx=0;entryDy=0;endArrow=none;endFill=0;" edge="1" parent="1" source="9misM1SqA0BYNmYFmZ5R-110" target="0hOv-4cGE1IFnxYp0O-4-63">
          <mxGeometry relative="1" as="geometry" />
        </mxCell>
        <mxCell id="9misM1SqA0BYNmYFmZ5R-110" value="&lt;span style=&quot;border-bottom: 1px dotted&quot;&gt;medication_id&lt;/span&gt;" style="ellipse;whiteSpace=wrap;html=1;align=center;" vertex="1" parent="1">
          <mxGeometry x="290" y="1276.5" width="100" height="40" as="geometry" />
        </mxCell>
        <mxCell id="9misM1SqA0BYNmYFmZ5R-117" style="edgeStyle=orthogonalEdgeStyle;rounded=0;orthogonalLoop=1;jettySize=auto;html=1;endArrow=none;endFill=0;" edge="1" parent="1" source="9misM1SqA0BYNmYFmZ5R-113">
          <mxGeometry relative="1" as="geometry">
            <mxPoint x="-540" y="1200" as="targetPoint" />
          </mxGeometry>
        </mxCell>
        <mxCell id="9misM1SqA0BYNmYFmZ5R-113" value="&lt;span style=&quot;border-bottom: 1px dotted&quot;&gt;food_id&lt;/span&gt;" style="ellipse;whiteSpace=wrap;html=1;align=center;" vertex="1" parent="1">
          <mxGeometry x="-660" y="1208" width="100" height="40" as="geometry" />
        </mxCell>
        <mxCell id="9misM1SqA0BYNmYFmZ5R-116" style="edgeStyle=orthogonalEdgeStyle;rounded=0;orthogonalLoop=1;jettySize=auto;html=1;entryX=0;entryY=0.75;entryDx=0;entryDy=0;endArrow=none;endFill=0;" edge="1" parent="1" source="9misM1SqA0BYNmYFmZ5R-115" target="0hOv-4cGE1IFnxYp0O-4-77">
          <mxGeometry relative="1" as="geometry">
            <Array as="points">
              <mxPoint x="-540" y="1036" />
            </Array>
          </mxGeometry>
        </mxCell>
        <mxCell id="9misM1SqA0BYNmYFmZ5R-115" value="&lt;span style=&quot;border-bottom: 1px dotted&quot;&gt;nutrition_id&lt;/span&gt;" style="ellipse;whiteSpace=wrap;html=1;align=center;" vertex="1" parent="1">
          <mxGeometry x="-610" y="1266.5" width="100" height="40" as="geometry" />
        </mxCell>
        <mxCell id="9misM1SqA0BYNmYFmZ5R-122" style="edgeStyle=orthogonalEdgeStyle;rounded=0;orthogonalLoop=1;jettySize=auto;html=1;entryX=1;entryY=0.5;entryDx=0;entryDy=0;endArrow=none;endFill=0;" edge="1" parent="1" source="9misM1SqA0BYNmYFmZ5R-118" target="Zpv9UvLriDffYdWMjb3y-13">
          <mxGeometry relative="1" as="geometry" />
        </mxCell>
        <mxCell id="9misM1SqA0BYNmYFmZ5R-118" value="&lt;span style=&quot;border-bottom: 1px dotted&quot;&gt;account_id&lt;/span&gt;" style="ellipse;whiteSpace=wrap;html=1;align=center;" vertex="1" parent="1">
          <mxGeometry x="330" y="1066.5" width="100" height="40" as="geometry" />
        </mxCell>
        <mxCell id="9misM1SqA0BYNmYFmZ5R-120" style="edgeStyle=orthogonalEdgeStyle;rounded=0;orthogonalLoop=1;jettySize=auto;html=1;entryX=1;entryY=0.5;entryDx=0;entryDy=0;endArrow=none;endFill=0;" edge="1" parent="1" source="9misM1SqA0BYNmYFmZ5R-119" target="Zpv9UvLriDffYdWMjb3y-13">
          <mxGeometry relative="1" as="geometry">
            <Array as="points">
              <mxPoint x="510" y="1110" />
              <mxPoint x="300" y="1110" />
              <mxPoint x="300" y="1087" />
            </Array>
          </mxGeometry>
        </mxCell>
        <mxCell id="9misM1SqA0BYNmYFmZ5R-119" value="&lt;span style=&quot;border-bottom: 1px dotted&quot;&gt;food_id&lt;/span&gt;" style="ellipse;whiteSpace=wrap;html=1;align=center;" vertex="1" parent="1">
          <mxGeometry x="510" y="1156.5" width="100" height="40" as="geometry" />
        </mxCell>
        <mxCell id="9misM1SqA0BYNmYFmZ5R-126" style="edgeStyle=orthogonalEdgeStyle;rounded=0;orthogonalLoop=1;jettySize=auto;html=1;entryX=1;entryY=0;entryDx=0;entryDy=0;endArrow=none;endFill=0;" edge="1" parent="1" source="9misM1SqA0BYNmYFmZ5R-123" target="0hOv-4cGE1IFnxYp0O-4-11">
          <mxGeometry relative="1" as="geometry">
            <Array as="points">
              <mxPoint x="290" y="957" />
              <mxPoint x="290" y="977" />
            </Array>
          </mxGeometry>
        </mxCell>
        <mxCell id="9misM1SqA0BYNmYFmZ5R-123" value="&lt;span style=&quot;border-bottom: 1px dotted&quot;&gt;food_id&lt;/span&gt;" style="ellipse;whiteSpace=wrap;html=1;align=center;" vertex="1" parent="1">
          <mxGeometry x="300" y="936.5" width="100" height="40" as="geometry" />
        </mxCell>
        <mxCell id="9misM1SqA0BYNmYFmZ5R-125" style="edgeStyle=orthogonalEdgeStyle;rounded=0;orthogonalLoop=1;jettySize=auto;html=1;entryX=1;entryY=0.75;entryDx=0;entryDy=0;endArrow=none;endFill=0;" edge="1" parent="1" source="9misM1SqA0BYNmYFmZ5R-124" target="0hOv-4cGE1IFnxYp0O-4-11">
          <mxGeometry relative="1" as="geometry" />
        </mxCell>
        <mxCell id="9misM1SqA0BYNmYFmZ5R-124" value="&lt;span style=&quot;border-bottom: 1px dotted&quot;&gt;account_id&lt;/span&gt;" style="ellipse;whiteSpace=wrap;html=1;align=center;" vertex="1" parent="1">
          <mxGeometry x="320" y="998" width="100" height="40" as="geometry" />
        </mxCell>
        <mxCell id="9misM1SqA0BYNmYFmZ5R-130" style="edgeStyle=orthogonalEdgeStyle;rounded=0;orthogonalLoop=1;jettySize=auto;html=1;entryX=0.25;entryY=0;entryDx=0;entryDy=0;endArrow=none;endFill=0;" edge="1" parent="1" source="9misM1SqA0BYNmYFmZ5R-127" target="0hOv-4cGE1IFnxYp0O-4-10">
          <mxGeometry relative="1" as="geometry">
            <Array as="points">
              <mxPoint x="175" y="880" />
              <mxPoint x="175" y="880" />
            </Array>
          </mxGeometry>
        </mxCell>
        <mxCell id="9misM1SqA0BYNmYFmZ5R-127" value="&lt;span style=&quot;border-bottom: 1px dotted&quot;&gt;food_id&lt;/span&gt;" style="ellipse;whiteSpace=wrap;html=1;align=center;" vertex="1" parent="1">
          <mxGeometry x="80" y="833" width="100" height="40" as="geometry" />
        </mxCell>
        <mxCell id="9misM1SqA0BYNmYFmZ5R-129" style="edgeStyle=orthogonalEdgeStyle;rounded=0;orthogonalLoop=1;jettySize=auto;html=1;entryX=0.25;entryY=0;entryDx=0;entryDy=0;endArrow=none;endFill=0;" edge="1" parent="1" source="9misM1SqA0BYNmYFmZ5R-128" target="0hOv-4cGE1IFnxYp0O-4-10">
          <mxGeometry relative="1" as="geometry">
            <Array as="points">
              <mxPoint x="180" y="870" />
              <mxPoint x="180" y="877" />
              <mxPoint x="175" y="877" />
            </Array>
          </mxGeometry>
        </mxCell>
        <mxCell id="9misM1SqA0BYNmYFmZ5R-128" value="&lt;span style=&quot;border-bottom: 1px dotted&quot;&gt;account_id&lt;/span&gt;" style="ellipse;whiteSpace=wrap;html=1;align=center;" vertex="1" parent="1">
          <mxGeometry x="200" y="850" width="100" height="40" as="geometry" />
        </mxCell>
        <mxCell id="9misM1SqA0BYNmYFmZ5R-133" style="edgeStyle=orthogonalEdgeStyle;rounded=0;orthogonalLoop=1;jettySize=auto;html=1;endArrow=none;endFill=0;" edge="1" parent="1" source="9misM1SqA0BYNmYFmZ5R-132">
          <mxGeometry relative="1" as="geometry">
            <mxPoint x="1030" y="200" as="targetPoint" />
            <Array as="points">
              <mxPoint x="1146" y="190" />
              <mxPoint x="1031" y="190" />
              <mxPoint x="1031" y="200" />
            </Array>
          </mxGeometry>
        </mxCell>
        <mxCell id="9misM1SqA0BYNmYFmZ5R-132" value="&lt;span style=&quot;border-bottom: 1px dotted&quot;&gt;system_id&lt;/span&gt;" style="ellipse;whiteSpace=wrap;html=1;align=center;" vertex="1" parent="1">
          <mxGeometry x="1096" y="132" width="100" height="40" as="geometry" />
        </mxCell>
        <mxCell id="9misM1SqA0BYNmYFmZ5R-142" style="edgeStyle=orthogonalEdgeStyle;rounded=0;orthogonalLoop=1;jettySize=auto;html=1;entryX=0.5;entryY=0;entryDx=0;entryDy=0;endArrow=none;endFill=0;" edge="1" parent="1" source="9misM1SqA0BYNmYFmZ5R-137" target="9misM1SqA0BYNmYFmZ5R-5">
          <mxGeometry relative="1" as="geometry">
            <Array as="points">
              <mxPoint x="-10" y="180" />
            </Array>
          </mxGeometry>
        </mxCell>
        <mxCell id="9misM1SqA0BYNmYFmZ5R-137" value="&lt;span style=&quot;border-bottom: 1px dotted&quot;&gt;device_id&lt;/span&gt;" style="ellipse;whiteSpace=wrap;html=1;align=center;" vertex="1" parent="1">
          <mxGeometry x="-127" y="140" width="100" height="40" as="geometry" />
        </mxCell>
        <mxCell id="9misM1SqA0BYNmYFmZ5R-140" style="edgeStyle=orthogonalEdgeStyle;rounded=0;orthogonalLoop=1;jettySize=auto;html=1;endArrow=none;endFill=0;" edge="1" parent="1" source="9misM1SqA0BYNmYFmZ5R-138">
          <mxGeometry relative="1" as="geometry">
            <mxPoint y="170" as="targetPoint" />
          </mxGeometry>
        </mxCell>
        <mxCell id="9misM1SqA0BYNmYFmZ5R-138" value="&lt;span style=&quot;border-bottom: 1px dotted&quot;&gt;user_id&lt;/span&gt;" style="ellipse;whiteSpace=wrap;html=1;align=center;" vertex="1" parent="1">
          <mxGeometry x="40" y="148" width="100" height="40" as="geometry" />
        </mxCell>
        <mxCell id="9misM1SqA0BYNmYFmZ5R-146" style="edgeStyle=orthogonalEdgeStyle;rounded=0;orthogonalLoop=1;jettySize=auto;html=1;endArrow=ERzeroToMany;endFill=0;entryX=0.5;entryY=0;entryDx=0;entryDy=0;" edge="1" parent="1" source="9misM1SqA0BYNmYFmZ5R-144" target="9misM1SqA0BYNmYFmZ5R-149">
          <mxGeometry relative="1" as="geometry">
            <mxPoint x="520" y="735.5" as="targetPoint" />
          </mxGeometry>
        </mxCell>
        <mxCell id="9misM1SqA0BYNmYFmZ5R-148" style="edgeStyle=orthogonalEdgeStyle;rounded=0;orthogonalLoop=1;jettySize=auto;html=1;entryX=0.5;entryY=1;entryDx=0;entryDy=0;endArrow=ERzeroToMany;endFill=0;" edge="1" parent="1" source="9misM1SqA0BYNmYFmZ5R-144" target="32Z3iKF3l3qFzu09CNa0-3">
          <mxGeometry relative="1" as="geometry" />
        </mxCell>
        <mxCell id="9misM1SqA0BYNmYFmZ5R-144" value="Complete" style="shape=rhombus;perimeter=rhombusPerimeter;whiteSpace=wrap;html=1;align=center;" vertex="1" parent="1">
          <mxGeometry x="460" y="625.5" width="120" height="60" as="geometry" />
        </mxCell>
        <mxCell id="9misM1SqA0BYNmYFmZ5R-149" value="Delete Requests" style="shape=ext;margin=3;double=1;whiteSpace=wrap;html=1;align=center;" vertex="1" parent="1">
          <mxGeometry x="470" y="741.5" width="100" height="40" as="geometry" />
        </mxCell>
        <mxCell id="9misM1SqA0BYNmYFmZ5R-151" style="edgeStyle=orthogonalEdgeStyle;rounded=0;orthogonalLoop=1;jettySize=auto;html=1;entryX=0.5;entryY=1;entryDx=0;entryDy=0;endArrow=none;endFill=0;" edge="1" parent="1" source="9misM1SqA0BYNmYFmZ5R-150" target="9misM1SqA0BYNmYFmZ5R-149">
          <mxGeometry relative="1" as="geometry" />
        </mxCell>
        <mxCell id="9misM1SqA0BYNmYFmZ5R-150" value="&lt;span style=&quot;border-bottom: 1px dotted&quot;&gt;account_id&lt;/span&gt;" style="ellipse;whiteSpace=wrap;html=1;align=center;" vertex="1" parent="1">
          <mxGeometry x="470" y="820" width="100" height="40" as="geometry" />
        </mxCell>
      </root>
    </mxGraphModel>
  </diagram>
</mxfile>
